<?xml version="1.0" encoding="UTF-8" standalone="no"?>
<!-- Created with Inkscape (http://www.inkscape.org/) -->

<svg
   xmlns:dc="http://purl.org/dc/elements/1.1/"
   xmlns:cc="http://creativecommons.org/ns#"
   xmlns:rdf="http://www.w3.org/1999/02/22-rdf-syntax-ns#"
   xmlns:svg="http://www.w3.org/2000/svg"
   xmlns="http://www.w3.org/2000/svg"
   xmlns:sodipodi="http://sodipodi.sourceforge.net/DTD/sodipodi-0.dtd"
   xmlns:inkscape="http://www.inkscape.org/namespaces/inkscape"
   width="300mm"
   height="300mm"
   viewBox="0 0 1062.9921 1062.9921"
   id="svg2"
   version="1.1"
   inkscape:version="0.91 r13725"
   sodipodi:docname="app-icon.svg"
   inkscape:export-filename="C:\projects\hair-o-matic\app-icon.png"
   inkscape:export-xdpi="90.543472"
   inkscape:export-ydpi="90.543472">
  <defs
     id="defs4" />
  <sodipodi:namedview
     id="base"
     pagecolor="#ffffff"
     bordercolor="#666666"
     borderopacity="1.0"
     inkscape:pageopacity="0.0"
     inkscape:pageshadow="2"
     inkscape:zoom="0.7"
     inkscape:cx="440.67612"
     inkscape:cy="324.67225"
     inkscape:document-units="px"
     inkscape:current-layer="layer1"
     showgrid="false"
     inkscape:window-width="2560"
     inkscape:window-height="1378"
     inkscape:window-x="-9"
     inkscape:window-y="-9"
     inkscape:window-maximized="1" />
  <metadata
     id="metadata7">
    <rdf:RDF>
      <cc:Work
         rdf:about="">
        <dc:format>image/svg+xml</dc:format>
        <dc:type
           rdf:resource="http://purl.org/dc/dcmitype/StillImage" />
        <dc:title />
      </cc:Work>
    </rdf:RDF>
  </metadata>
  <g
     inkscape:groupmode="layer"
     id="layer2"
     inkscape:label="Layer 2">
    <rect
       style="fill:#d5ffff;fill-opacity:1"
       id="rect3713"
       width="1056.6195"
       height="1060.6603"
       x="4.040607"
       y="4.3521991"
       ry="270.72089" />
  </g>
  <g
     inkscape:label="Layer 1"
     inkscape:groupmode="layer"
     id="layer1"
     transform="translate(0,10.629921)">
    <path
       style="fill:#000000;fill-opacity:1;fill-rule:nonzero;stroke:none;stroke-width:1px;stroke-linecap:butt;stroke-linejoin:miter;stroke-opacity:1"
       id="path3412"
       d="M 78.373167,759.93477 C 150.17813,734.17026 223.06482,712.17995 295.75549,689.62029 332.44775,678.52665 369.14442,667.509 405.67918,655.8144 c 0,0 -47.93442,40.22012 -47.93442,40.22012 l 0,0 c -35.71097,10.74305 -71.57283,20.85036 -107.28678,31.58202 -73.97611,22.74672 -148.12869,45.26636 -220.510962,73.58808 0,0 48.426149,-41.26985 48.426149,-41.26985 z"
       inkscape:connector-curvature="0" />
    <path
       style="fill:#000000;fill-opacity:1;fill-rule:nonzero;stroke:none;stroke-width:1px;stroke-linecap:butt;stroke-linejoin:miter;stroke-opacity:1"
       id="path3432"
       d="m 388.80685,663.53753 c -12.31996,37.4588 -21.2623,76.0656 -28.61438,114.99845 -3.90713,29.89621 -10.77163,60.15546 -10.04193,90.5814 0.11296,4.71232 0.73305,9.39392 1.09957,14.09088 3.03484,23.12998 10.00106,45.34898 17.5957,67.10368 0,0 -14.2824,8.65471 -14.2824,8.65471 l 0,0 c -7.57721,-21.93206 -14.64676,-44.28032 -17.76865,-67.55716 -0.39111,-4.76072 -1.04375,-9.50448 -1.17336,-14.28215 -0.82919,-30.56805 6.31458,-60.95639 10.17574,-90.99184 7.25564,-38.89859 16.16688,-77.41609 28.02647,-114.98238 0,0 14.98324,-7.61559 14.98324,-7.61559 z"
       inkscape:connector-curvature="0" />
    <path
       style="fill:#000000;fill-opacity:1;fill-rule:nonzero;stroke:none;stroke-width:1px;stroke-linecap:butt;stroke-linejoin:miter;stroke-opacity:1"
       d="m 515.0527,666.23492 -14.95347,7.68795 c -2.38132,8.26865 -1.19092,4.05907 -3.56118,12.6191 -2.74831,12.24266 -5.35432,24.51072 -7.85398,36.81374 -5.11585,22.96391 -8.74033,46.31597 -15.31359,68.88947 -10.85246,37.06034 -23.62321,73.73388 -41.01628,107.78721 -6.42089,10.36548 -10.7187,18.48667 -18.89762,27.27231 -2.86481,3.07734 -6.51668,5.20295 -9.45739,8.18015 -9.32351,3.36584 -1.32585,2.16975 -13.1643,3.08703 l -13.39867,10.60988 c 15.94971,-0.37712 27.56861,-9.60654 40.96769,-19.25105 3.68508,-2.65248 7.07685,-5.81858 10.16333,-9.26107 7.70722,-8.59618 12.5683,-17.72253 18.61466,-27.70532 17.10705,-34.33857 29.99227,-71.06054 40.83622,-108.24511 6.58685,-22.67072 10.25644,-46.113 15.53938,-69.13556 2.55162,-12.30099 5.11965,-24.57216 7.87115,-36.82621 2.43785,-8.45997 1.22913,-4.28504 3.62405,-12.52252 z"
       id="path3434"
       inkscape:connector-curvature="0" />
    <path
       style="fill:#000000;fill-opacity:1;fill-rule:nonzero;stroke:none;stroke-width:1px;stroke-linecap:butt;stroke-linejoin:miter;stroke-opacity:1"
       id="path3436"
       d="m 527.06027,664.59168 c 52.71189,-2.23714 105.41126,-4.75219 158.10784,-7.45658 139.67731,-8.24829 279.42476,-14.2921 419.30359,-15.76144 68.7167,-1.01876 137.4506,1.23856 206.1646,-0.0363 43.3176,-0.80375 58.2965,-1.95682 101.2949,-4.22577 14.5815,-0.95785 29.1631,-1.91572 43.7448,-2.87358 0,0 -12.3195,9.87651 -12.3195,9.87651 l 0,0 c -14.5304,0.90932 -29.0607,1.81864 -43.591,2.72796 -41.8442,2.16117 -59.1881,3.40266 -101.3276,4.16452 -68.6422,1.241 -137.3075,-0.98025 -205.9527,-0.12393 -139.91701,1.19221 -279.71778,6.81277 -419.3943,15.91749 -53.08998,3.11 -106.18804,5.85843 -159.29681,8.44416 0,0 13.26618,-10.65285 13.26618,-10.65285 z"
       inkscape:connector-curvature="0" />
    <path
       style="fill:#000000;fill-opacity:1;fill-rule:nonzero;stroke:none;stroke-width:1px;stroke-linecap:butt;stroke-linejoin:miter;stroke-opacity:1"
       d="m 442.62328,703.84611 c -6.17112,1.71857 -12.25558,3.99836 -18.13451,6.69115 -3.03561,2.25316 -6.27397,4.10075 -9.49168,5.96533 0.11054,-1.19696 0.20046,-2.39529 0.31724,-3.59166 l -14.82771,8.03062 c -1.46758,16.63696 -2.52606,33.30797 -3.16103,50.006 -0.48323,10.53686 -3.4919,20.10093 -7.82827,29.37811 -3.50872,7.77064 -6.45316,15.78419 -9.26305,23.88314 -2.80009,8.47711 -3.97812,17.12123 -2.86665,26.0294 0.52613,7.56059 3.3786,14.46434 5.01593,21.75244 3.07004,6.64998 3.89945,14.03817 5.89907,21.0391 2.76031,5.38326 7.78935,4.84319 12.38121,2.01544 19.79319,-12.18892 15.22617,-7.87255 24.91387,-19.45664 9.77804,-13.04619 14.98924,-28.80148 18.02589,-45.1029 0.65995,-10.14002 -0.99171,-20.24711 -1.79488,-30.33443 0.64706,-13.02115 2.93062,-25.97406 5.57041,-38.68277 3.85593,-14.52661 7.77254,-29.30828 8.44277,-44.48302 -0.54384,-9.08946 -5.27896,-13.23118 -13.19861,-13.13931 z m -10.68922,10.59431 c 5.86949,0.0406 8.45689,2.46317 9.10583,10.64726 -0.81607,15.08718 -4.75681,29.72009 -8.52279,44.19644 -2.56948,12.89 -5.06808,25.99723 -5.41034,39.20921 0.81153,9.91389 2.44993,19.87649 1.62339,29.83913 -3.12079,16.06506 -8.41053,31.53615 -18.35457,44.17461 -1.71911,1.90409 -3.06965,3.31902 -3.9956,4.31747 -0.87215,0.0942 -1.62491,1.1e-4 -2.1207,-0.3956 -0.6404,-0.51117 -0.93766,-1.39807 -1.40617,-2.09645 -1.9356,-6.99036 -2.87594,-14.30307 -5.85907,-20.94874 -1.66125,-7.20895 -4.42432,-14.07504 -4.92446,-21.56866 -0.96742,-8.64964 0.42596,-17.05432 3.20962,-25.2195 2.8572,-8.03593 5.78949,-16.01764 9.34306,-23.72427 4.31051,-9.4617 6.98682,-19.3845 7.43386,-30.0198 0.53109,-14.18671 1.36927,-28.35723 2.59799,-42.49248 4.81492,-2.04578 9.6907,-3.81966 14.55905,-5.80025 0.97635,-0.0816 1.88239,-0.12417 2.7209,-0.11837 z m -17.73438,169.17873 c 0.014,0.032 -1.05152,0.6696 -2.46367,1.3644 0.73404,-0.41531 1.05898,-0.60525 1.93778,-1.09649 0.35952,-0.20098 0.52044,-0.28039 0.52589,-0.26791 z"
       id="path3440"
       inkscape:connector-curvature="0" />
    <path
       style="fill:#000000;fill-opacity:1;fill-rule:nonzero;stroke:none;stroke-width:1px;stroke-linecap:butt;stroke-linejoin:miter;stroke-opacity:1"
       id="path3444"
       d="m 410.34078,713.44632 c 9.74534,-51.08966 15.68004,-102.75001 18.83807,-154.78883 1.38468,-62.38316 -8.66808,-124.6042 -26.49786,-183.79199 -2.96322,-9.83674 -6.46742,-19.47 -9.70114,-29.20499 -9.44964,-25.34602 -20.7728,-50.69301 -40.22433,-68.76749 -7.36257,-6.84135 -10.36648,-8.15732 -18.44651,-13.08745 0,0 13.74115,-9.73878 13.74115,-9.73878 l 0,0 c 8.07693,5.09543 11.22615,6.56557 18.56663,13.54505 19.4243,18.46904 30.7561,44.08397 40.17599,69.71011 3.2169,9.78195 6.69933,19.46494 9.65075,29.34583 17.74056,59.39244 27.88576,121.76741 26.77201,184.31785 -0.6481,11.32511 -1.05365,22.66979 -1.94428,33.97532 -3.19139,40.5112 -9.72494,80.56621 -16.08483,120.57483 0,0 -14.84565,7.91054 -14.84565,7.91054 z"
       inkscape:connector-curvature="0" />
    <path
       style="fill:#000000"
       d="m 404.01931,885.96108 c -0.74095,-0.97307 -1.47529,-3.29812 -2.63997,-8.35875 -1.36684,-5.93895 -2.22604,-9.04942 -3.32891,-12.05121 -1.53148,-4.16841 -4.82416,-16.71159 -5.39231,-20.54155 -1.16245,-7.83614 -0.58592,-16.82831 1.55386,-24.23538 1.45551,-5.03837 5.74066,-16.53581 8.88877,-23.84926 7.09456,-16.4816 8.60131,-22.81931 9.34754,-39.31762 0.76903,-17.00252 2.11895,-36.65839 2.54824,-37.10392 0.13243,-0.13748 3.31734,-1.48494 7.07749,-2.99435 6.1378,-2.46386 7.11995,-2.74619 9.60825,-2.76203 3.3259,-0.0212 5.11495,0.592 6.61881,2.26848 2.27128,2.53199 2.84685,6.39424 2.05907,13.81666 -0.94416,8.89565 -2.76613,18.05743 -6.32592,31.80986 -3.09682,11.9638 -5.95938,28.88673 -6.77901,40.07615 -0.34864,4.75964 -0.30312,6.34122 0.36521,12.68742 0.41991,3.98746 0.85873,10.60306 0.97515,14.7013 0.21024,7.40068 0.2037,7.48557 -0.96083,12.48603 -3.24847,13.9488 -6.96783,23.60839 -12.67498,32.91827 -3.37778,5.51009 -8.11743,10.98425 -9.5104,10.98425 -0.56273,0 -1.20627,-0.24046 -1.43006,-0.53435 z"
       id="path3466"
       inkscape:connector-curvature="0" />
    <path
       style="fill:#000000"
       id="path3470"
       d="m 334.07372,261.39203 c -6.11271,-2.18284 -12.48612,-3.35823 -18.49812,-5.87756 -3.92029,-2.56268 -6.9647,-6.63952 -9.96982,-10.35501 -3.33953,-4.26635 -6.5806,-8.7206 -9.17955,-13.5741 -1.08647,-1.60439 -1.85127,-3.40065 -2.66113,-5.17459 0,0 5.11268,-3.16696 5.11268,-3.16696 l 0,0 c 0.78474,1.7717 1.54603,3.55132 2.6143,5.15201 2.55888,4.83011 5.76468,9.2614 9.09075,13.48467 2.95908,3.62788 5.95574,7.63368 9.83639,10.08489 6.0221,2.48272 12.37918,3.71621 18.50021,5.86408 0,0 -4.84571,3.56257 -4.84571,3.56257 z"
       inkscape:connector-curvature="0" />
    <path
       style="fill:#000000"
       id="path3472"
       d="m 341.13505,256.78058 c -7.88494,-1.7002 -15.7092,-3.81093 -23.3495,-6.53683 -7.38717,-2.76186 -10.45611,-5.53368 -14.83736,-12.47098 -2.78599,-4.76989 -4.38648,-10.12615 -6.35427,-15.30268 -0.33619,-1.42979 -0.33165,0.0249 -0.25218,-0.004 1.71038,-0.64231 3.21353,-1.92667 4.98033,-2.35042 0.33776,-0.081 0.10257,0.74565 0.16345,1.1167 0.13858,0.84487 0.29779,1.68552 0.43942,2.52976 0.79889,3.28019 3.06237,5.89317 4.99472,8.46939 2.59138,3.0959 5.90971,5.33344 9.24893,7.35122 3.64762,2.32984 6.82201,5.34223 10.62227,7.3994 2.71756,1.26746 5.36424,2.52108 8.28717,3.08537 2.6566,0.1225 5.21227,0.59666 7.80633,1.19162 2.62719,0.91437 4.8287,2.55228 6.79056,4.63035 2.14182,2.42169 4.01456,5.09482 6.0446,7.62104 0,0 -5.00592,3.29303 -5.00592,3.29303 l 0,0 c -2.01317,-2.51911 -3.89236,-5.16436 -6.03081,-7.56482 -1.91043,-1.97623 -4.06084,-3.53622 -6.62019,-4.32639 -2.5866,-0.60007 -5.16198,-0.93668 -7.7962,-1.18224 -2.9397,-0.64229 -5.62763,-1.93707 -8.36375,-3.24631 -3.77066,-2.11945 -6.96701,-5.12435 -10.63955,-7.41778 -3.38969,-2.07409 -6.73418,-4.39546 -9.36016,-7.55834 -2.00002,-2.6623 -4.31436,-5.35167 -5.16178,-8.73705 -0.0676,-0.4042 -0.87161,-3.43824 -0.64444,-3.71775 2.22391,-2.73614 4.06686,-6.58815 5.62325,-3.70451 1.87416,5.17389 3.47389,10.47756 6.22818,15.22034 4.32359,6.80946 7.37685,9.42686 14.62983,12.12721 7.64174,2.70871 15.45929,4.83645 23.35476,6.4648 0,0 -4.79769,3.62084 -4.79769,3.62084 z"
       inkscape:connector-curvature="0" />
    <path
       style="fill:#000000"
       id="path3476"
       d="m 340.6823,257.82622 c -1.99023,-0.0442 -3.97949,-0.15311 -5.96978,-0.21495 -3.23955,-0.0691 -6.36126,-1.12835 -9.4162,-2.21131 -1.88596,-0.75234 -3.80593,-1.46958 -5.56012,-2.5533 -0.76163,-0.47053 -1.06019,-0.73055 -1.74936,-1.26797 -0.64208,-0.51042 -1.16329,-1.12357 -1.5512,-1.87408 0,0 0.89442,-0.56095 0.89442,-0.56095 l 0,0 c 0.37469,0.73877 0.88592,1.33911 1.51246,1.8424 0.68539,0.5378 0.97302,0.7912 1.73228,1.26126 1.74641,1.08128 3.65851,1.79805 5.53661,2.54895 3.05513,1.08279 6.17937,2.11852 9.41938,2.17099 1.99542,0.0647 3.99044,0.17674 5.98639,0.19785 0,0 -0.83488,0.66111 -0.83488,0.66111 z"
       inkscape:connector-curvature="0" />
    <path
       style="fill:#000000"
       id="path3478"
       d="m 326.33099,252.36099 c 2.86407,0.69539 5.75395,1.24536 8.64284,1.80146 3.29953,0.59573 6.59126,1.2455 9.89801,1.79352 1.14124,0.19432 2.29103,0.30598 3.44418,0.36357 -0.34829,0.23615 -0.67798,0.50855 -1.04488,0.70844 -0.12204,0.0666 -0.26849,0.053 -0.4026,0.0802 -0.20318,0.0413 -0.40697,0.0795 -0.60929,0.12569 -0.93606,0.21409 -1.86406,0.47122 -2.79794,0.6967 -1.52867,0.30862 -3.06393,0.64846 -4.6242,0.62754 -1.42047,0.01 -2.44782,-1.13633 -3.48855,-2.04609 -1.7884,-1.60943 -3.66789,-3.09247 -5.77491,-4.16224 -0.94161,-0.45126 -1.95997,-0.52634 -2.97347,-0.54513 -0.074,0.0143 -0.29516,0.0636 -0.22229,0.043 0.38763,-0.10881 0.76786,-0.3408 1.167,-0.30828 0.26586,0.0217 0.44791,0.31589 0.68002,0.45879 0.33149,0.20409 0.66431,0.40738 1.00985,0.58161 0.90197,0.4548 1.70855,0.73662 2.64663,1.09725 2.92424,1.07745 5.97582,1.60096 8.98231,2.31514 0.96608,0.20933 1.92698,0.44716 2.88499,0.69647 0.0965,0.0252 0.8236,0.19697 0.97421,0.31579 0.0471,0.0372 0.0306,0.12233 0.046,0.18351 -0.39037,0.22523 -0.75021,0.52966 -1.1711,0.67565 -0.14501,0.0503 -1.66693,-0.0915 -1.68184,-0.0931 -0.96664,-0.10476 -1.92621,-0.2693 -2.88199,-0.45451 -1.68735,-0.45293 -3.40359,-0.69163 -5.134,-0.82112 -2.14561,-0.19728 -4.28405,-0.48494 -6.41687,-0.80565 -1.03935,-0.17984 -2.05584,-0.48651 -3.09816,-0.64578 -0.53029,-0.0712 -1.06531,-0.0695 -1.59863,-0.0709 -0.6535,-0.0346 -1.5705,0.25501 0.44429,-0.65945 0.11147,-0.0506 0.24154,10e-4 0.36229,10e-4 0.14518,6.6e-4 0.29047,9.7e-4 0.43572,0.001 0.1712,4.3e-4 0.34249,0.007 0.51363,0.001 0.62728,-0.0205 1.24649,-0.1064 1.87561,-0.0935 0.76016,0.016 1.14331,0.0674 1.92018,0.14082 0.93009,0.12743 1.86085,0.25825 2.78413,0.43688 0.26097,0.0506 0.55777,0.0367 0.77234,0.20622 0.0318,0.0252 0.0185,0.0833 0.0276,0.12488 -0.44412,0.17187 -0.8654,0.44626 -1.33237,0.5156 -0.32042,0.0475 -0.63915,-0.1088 -0.95665,-0.17562 -0.41256,-0.0868 -0.82288,-0.18598 -1.23307,-0.2853 -1.43731,-0.34805 -2.84577,-0.74731 -4.25371,-1.2159 -1.28921,-0.44543 -2.52981,-1.03334 -3.77522,-1.60267 -0.68922,-0.31507 -1.37747,-0.61511 -2.04048,-0.99111 -0.063,-0.0597 -0.15143,-0.098 -0.1888,-0.17918 -0.0251,-0.0545 -0.0236,-0.14784 0.0235,-0.18097 0.36233,-0.25548 0.74812,-0.47709 1.1506,-0.64675 0.26026,-0.10973 1.79911,-0.0556 2.07214,-0.058 2.07866,-0.0915 4.12417,0.21452 6.12392,0.81214 1.24023,0.42328 2.4224,1.045 3.54154,1.76182 0.63963,0.45606 1.36704,0.62459 2.11288,0.73113 0.77119,0.17538 1.56827,0.19415 2.33811,0.37303 0.70677,0.84442 -2.33862,0.70831 -2.42423,0.70817 -1.91459,0.19114 -3.82384,0.43527 -5.74116,0.60136 -0.5953,0.0522 -1.19128,0.0942 -1.78669,0.14451 -0.16621,0.0143 -0.33256,0.0268 -0.49839,0.0451 -0.0693,0.008 -0.26716,0.0713 -0.20679,0.0334 1.19735,-0.75174 0.82342,-0.65281 1.81288,-0.63215 1.9238,-0.001 3.84523,0.007 5.7676,0.0897 1.41725,0.0706 2.83539,0.11547 4.25312,0.17239 0.0285,0.003 0.11008,-0.008 0.0856,0.01 -0.3863,0.26445 -0.76869,0.54342 -1.18609,0.74401 -0.24726,0.11881 -1.72855,0.15279 -2.07723,0.17047 -0.95306,0.0374 -1.90696,0.0407 -2.86056,0.043 -0.59754,0.0189 -1.18688,-0.10366 -1.72755,-0.37702 -0.67154,-0.56606 -1.33957,-1.09589 -2.147,-1.3976 -0.74273,-0.23783 -1.52202,-0.2245 -2.28857,-0.23411 -0.82884,-0.003 -1.65766,0.003 -2.48647,0.008 -0.57943,0.01 -1.20129,0.0174 -1.61089,-0.48351 -0.23441,-0.41792 -0.26736,-0.84196 0.10349,-1.15563 1.14406,-0.77598 1.34707,-0.72009 2.53755,-0.73545 1.30986,0.17309 2.62197,0.33487 3.92415,0.57177 1.25698,0.29015 2.51064,0.59553 3.78686,0.76607 0.71864,0.0552 1.3558,0.37197 2.01415,0.65222 0.53988,0.24908 1.02218,0.61609 1.55619,0.87369 1.27224,0.56547 2.58132,1.04512 3.89195,1.49636 1.07817,0.36175 2.18037,0.62702 3.30319,0.7461 0.49186,0.0404 1.02307,0.0697 1.4865,-0.15104 -0.34746,0.20072 -0.67611,0.44606 -1.04233,0.60213 -0.0915,0.039 -0.19498,-0.0257 -0.2929,-0.0332 -0.1336,-0.01 -0.26751,-0.016 -0.40136,-0.0198 -0.5286,-0.0181 -1.05788,-0.0128 -1.58662,-0.0128 -0.97447,0.0301 -1.94208,-0.11835 -2.91552,-0.12393 0,0 0.83255,-0.65772 0.83255,-0.65772 l 0,0 c 0.97212,0.0182 1.93981,0.15551 2.91329,0.12392 0.53115,-5.6e-4 1.06326,-0.008 1.5942,0.0143 0.13625,0.004 0.2727,0.0112 0.40848,0.0243 0.10234,0.01 0.34826,-0.0547 0.3053,0.0471 -0.12922,0.30584 -0.4237,0.49006 -0.63554,0.73511 -0.49009,0.16078 -1.0026,0.16696 -1.508,0.10443 -1.1228,-0.13269 -2.22406,-0.40878 -3.30229,-0.7746 -1.31567,-0.45614 -2.63333,-0.92878 -3.91089,-1.49814 -0.53004,-0.26481 -1.01749,-0.61859 -1.55622,-0.86723 -0.64955,-0.28219 -1.28563,-0.57541 -1.99468,-0.63266 -1.27323,-0.18069 -2.52347,-0.49396 -3.78014,-0.7764 -1.30206,-0.2315 -2.61382,-0.40289 -3.92587,-0.54601 -0.33168,0.007 -0.66549,0.004 -0.99584,0.043 -0.42182,0.0482 -1.06978,0.41053 0.26227,-0.38231 -0.39122,0.22328 -0.40806,0.57822 -0.18376,0.9798 0.39476,0.46012 1.0214,0.40501 1.55745,0.40902 0.82879,-0.003 1.65762,-0.0112 2.48642,-0.004 0.77512,0.0128 1.56293,0.003 2.30974,0.26274 0.80349,0.31754 1.46826,0.8559 2.15263,1.40436 0.53786,0.25022 1.11535,0.35987 1.70146,0.3391 0.95149,-7.2e-4 1.90332,-0.003 2.85421,-0.0444 0.53045,-0.0279 1.06091,-0.0556 1.58909,-0.11882 0.16154,-0.0193 0.48487,-0.24548 0.48347,-0.0684 -0.006,0.66952 -0.29778,0.61502 -0.56461,0.58611 -1.40995,-0.0764 -2.82163,-0.11388 -4.23168,-0.18859 -1.92588,-0.0789 -3.85094,-0.0848 -5.77809,-0.0785 -0.72833,-0.0128 -0.99694,0.16951 -0.15064,-0.69932 0.0233,-0.024 1.29005,-0.10575 1.46043,-0.11883 0.33614,-0.0258 0.67223,-0.0528 1.00834,-0.0791 1.9256,-0.16883 3.84211,-0.42684 5.76553,-0.60988 0.38703,-7.3e-4 0.77464,0.003 1.16156,-0.01 0.58294,-0.0191 0.29227,-0.0635 -0.42543,0.6097 -0.7668,-0.1717 -1.55553,-0.21072 -2.32412,-0.37381 -0.75657,-0.11515 -1.49255,-0.29761 -2.13867,-0.76591 -1.11003,-0.71069 -2.27622,-1.33752 -3.50953,-1.74955 -1.99713,-0.58821 -4.03773,-0.8812 -6.11115,-0.78462 -0.4519,0.007 -1.14875,0.01 -1.61657,0.0405 -0.15298,0.01 -0.51441,0.20684 -0.45735,0.0519 0.0961,-0.26143 0.42034,-0.32817 0.62326,-0.50263 0.0538,-0.0463 -0.59051,0.30182 0.0761,0.20847 0.65407,0.37917 1.33404,0.682 2.01596,0.9975 1.23885,0.57318 2.47579,1.15747 3.76116,1.5993 1.80495,0.59609 3.63513,1.11377 5.49321,1.47798 0.32044,0.0628 0.77346,-0.12918 0.96609,0.15694 0.14034,0.20834 -0.31077,0.39034 -0.46617,0.58551 0.15646,0.13062 0.0565,0.0335 -0.15842,-0.0244 -0.17054,-0.046 -0.34341,-0.0813 -0.51622,-0.11563 -0.50043,-0.0995 -1.23955,-0.2207 -1.72571,-0.29232 -0.34849,-0.0513 -0.69789,-0.095 -1.04683,-0.14259 -0.81808,-0.0716 -1.12791,-0.11579 -1.92337,-0.12439 -0.62991,-0.007 -1.25278,0.0767 -1.88142,0.0953 -0.17185,0.004 -0.34382,2.1e-4 -0.51574,3e-4 -0.1459,0 -0.29181,0 -0.43769,-3e-5 -0.12176,-4e-5 -0.40638,0.12488 -0.36535,-1.3e-4 0.26734,-0.81405 0.68901,-0.66415 1.23314,-0.66771 0.53617,0.001 1.07411,0.004 1.60634,0.0847 1.03499,0.17143 2.04522,0.47953 3.07909,0.65951 2.13173,0.32671 4.2706,0.60655 6.41645,0.79669 1.73258,0.13477 3.44948,0.3814 5.13981,0.831 1.26238,0.2437 2.54309,0.47162 3.82726,0.51263 0.24276,0.008 0.65452,-0.26494 0.72848,-0.0128 0.0767,0.26141 -0.38396,0.35519 -0.57594,0.53279 0.007,-0.0269 0.0429,-0.0663 0.0209,-0.0807 -0.18335,-0.12026 -0.81518,-0.27497 -0.95587,-0.31248 -0.95307,-0.25415 -1.91017,-0.49177 -2.87179,-0.70442 -3.00698,-0.72015 -6.05715,-1.25859 -8.98426,-2.33005 -1.26883,-0.48863 -2.50827,-0.96675 -3.68609,-1.68569 -0.23977,-0.14642 -0.66869,-0.17399 -0.70197,-0.47134 -0.1065,-0.9525 0.35281,-0.9374 0.77085,-0.98432 1.02096,0.0327 2.04468,0.12058 2.98749,0.59151 2.09901,1.09643 3.97421,2.59166 5.77158,4.19467 1.04336,0.89248 2.06445,1.99386 3.47347,1.96885 1.55046,0.0112 3.07774,-0.32448 4.59598,-0.63632 0.93789,-0.22855 1.87032,-0.48605 2.8105,-0.70293 0.20435,-0.0471 0.41004,-0.0871 0.61519,-0.12966 0.13624,-0.0282 0.46426,-0.22157 0.40886,-0.0831 -0.11401,0.28484 -0.41899,0.42149 -0.62848,0.63222 -1.14621,-0.0807 -2.29075,-0.18442 -3.42481,-0.39208 -3.29776,-0.56767 -6.58272,-1.21981 -9.87663,-1.81252 -2.90021,-0.552 -5.79756,-1.1177 -8.68194,-1.76016 0,0 0.84196,-0.65411 0.84196,-0.65411 z"
       inkscape:connector-curvature="0" />
    <path
       style="fill:#000000"
       id="path3480"
       d="m 332.78636,258.53779 c 1.14301,0.91562 1.88785,2.22056 2.70592,3.45312 0.83939,1.23599 1.67331,2.52205 2.74839,3.53261 0.17337,0.12392 0.314,0.25716 0.52199,0.3007 0.18466,0.0386 0.3261,-0.0909 0.27374,-0.0709 -1.05619,0.40172 -0.76366,0.70235 -1.10999,0.053 -1.2145,-1.94077 -2.47139,-3.84955 -3.70415,-5.77649 -0.6771,-1.15315 -1.14342,-1.82177 0.64947,-2.20098 0.17054,-0.036 0.91116,0.63136 0.95382,0.66674 0.52482,0.657 1.99035,2.22212 1.98813,3.13313 -0.3657,0.15535 -0.70515,0.48811 -1.0971,0.46592 -0.22079,-0.0128 -0.28821,-0.36556 -0.42801,-0.55225 -0.72393,-0.96667 -1.38382,-1.98597 -2.10767,-2.95273 -0.009,-0.0112 -0.41471,-0.54012 -0.43762,-0.6766 -0.0117,-0.0689 0.007,-0.1626 0.0623,-0.19906 0.36177,-0.24009 0.73993,-0.46502 1.14451,-0.60171 0.1396,-0.0472 0.28941,0.0456 0.43412,0.0684 0.20663,0.0325 0.41329,0.065 0.61993,0.0974 1.58524,0.18522 3.13083,0.63258 4.62664,1.22264 0.45672,0.22939 0.95802,0.41601 1.35278,0.77055 0.0237,0.0212 0.27289,0.24451 0.12805,0.35095 -0.33899,0.24901 -0.72087,0.42037 -1.08131,0.63054 -0.99253,-0.0627 -1.95933,-0.32413 -2.9343,-0.51736 -0.43681,-0.0369 -0.89645,-0.22298 -1.33851,-0.13524 -0.0708,0.0143 -0.26516,0.11881 -0.20413,0.0772 0.24889,-0.17006 0.5142,-0.30976 0.77131,-0.46465 -0.26594,0.29456 2.02458,0.5725 2.1232,0.58701 1.01523,0.13333 2.03737,0.18274 3.05886,0.21272 0.41101,0.11179 0.49001,0.12519 -1.03631,0.6293 -0.17914,0.0592 -0.36976,-0.066 -0.55618,-0.0842 -0.31273,-0.0307 -0.6266,-0.0457 -0.94022,-0.0622 -0.8086,-0.0421 -1.44399,-0.0537 -2.25405,-0.0753 -1.44507,0.045 -2.90039,0.0319 -4.33958,0.20374 -0.0147,0.0112 -0.059,0.0428 -0.0429,0.0343 0.40922,-0.21711 0.79656,-0.48867 1.22348,-0.66062 0.15028,-0.0606 0.32015,-0.016 0.4801,-0.0255 0.1878,-0.0112 0.37589,-0.0205 0.56307,-0.0406 0.60966,-0.0659 0.53449,-0.0719 1.12869,-0.24332 1.50414,-0.75954 2.97218,-1.58982 4.53183,-2.21284 0.19675,-0.0594 0.39252,-0.12313 0.59029,-0.17848 0.55703,-0.15599 1.66771,-0.54331 -0.35295,0.52207 -0.17528,0.0925 -0.37958,0.095 -0.56851,0.14641 -0.26636,0.0724 -0.5315,0.15009 -0.79724,0.2251 -0.90912,0.21509 -1.72169,0.695 -2.56018,1.10477 -0.10038,0.0489 0.36336,-0.26286 0.28786,-0.1757 -0.12013,0.13876 -0.2901,0.21436 -0.42576,0.33489 -0.0947,0.0842 -0.17575,0.18511 -0.26362,0.27767 -0.24709,0.36263 -0.0941,0.46986 0.2738,0.5708 0.35415,0.0971 0.51538,0.10881 0.88518,0.1634 0.85369,0.10498 1.7135,0.11738 2.57161,0.12297 0.13009,-0.0168 0.43449,-0.05 0.56795,-0.0893 0.074,-0.0219 0.27961,-0.13461 0.21413,-0.0912 -1.20105,0.79581 -0.70907,0.51257 -0.50612,0.0931 0.11735,-0.45326 -0.26772,-0.58143 -0.60739,-0.58614 -1.11474,0.0662 -2.21475,0.30856 -3.30246,0.57278 -0.20021,0.0563 -0.57327,0.16978 -0.80072,0.20811 -0.0278,0.004 -0.1065,0.0128 -0.0841,-0.004 0.90768,-0.7404 1.04649,-0.75747 1.9588,-1.13899 1.25057,-0.61352 2.53554,-1.13215 3.82826,-1.62803 -0.48031,0.37963 0.82633,-0.42012 0.62716,-0.29878 -0.32442,0.1976 -0.62686,0.44711 -0.97442,0.59061 -0.14135,0.0583 -0.30228,-0.003 -0.45341,-10e-4 -0.76769,0.008 -0.53581,0.003 -1.32333,0.0754 -0.2286,0.0261 -0.45728,0.051 -0.68579,0.0778 -0.36645,0.0429 -0.77341,0.0912 -1.14169,0.14513 -0.18173,0.0266 -0.70161,0.19987 -0.54217,0.10126 0.36424,-0.22536 0.74752,-0.41203 1.12126,-0.61806 0.70069,0.0409 1.41212,0.0272 2.07597,0.30386 0.64585,0.53484 -1.02266,0.9514 -1.45356,1.05058 0,0 0.82364,-0.6831 0.82364,-0.6831 l 0,0 c 0.10142,-0.0265 0.20415,-0.0475 0.30425,-0.0793 0.0835,-0.0266 0.31458,-0.15422 0.24608,-0.0956 -0.77659,0.66441 -0.51763,0.63705 -0.78107,0.4394 -0.66291,-0.25849 -1.36935,-0.2283 -2.06264,-0.2864 0.18489,-0.23807 0.34413,-0.50294 0.55462,-0.71422 0.0483,-0.0485 0.12907,-0.0265 0.19398,-0.0371 0.11458,-0.0188 0.22949,-0.0355 0.34448,-0.051 0.60724,-0.083 1.21638,-0.14848 1.82521,-0.21555 0.55834,-0.0469 0.78209,-0.0809 1.33604,-0.0695 0.16279,0.003 0.53491,-0.13493 0.4874,0.0348 -0.16546,0.59094 -0.86902,0.82976 -1.33088,1.01818 -1.29363,0.49357 -2.5733,1.02598 -3.82704,1.63106 -0.18105,0.0756 -0.36167,0.15247 -0.54313,0.22688 -0.13815,0.0566 -0.48885,0.30583 -0.41559,0.16621 0.35709,-0.68067 0.92063,-0.65777 1.50789,-0.82309 1.09659,-0.25999 2.20671,-0.51138 3.33097,-0.5561 0.40712,0.052 0.79437,0.25743 0.70844,0.77562 -0.32232,0.85571 -1.26963,1.17318 -2.05753,1.21815 -0.8599,-0.01 -1.72155,-0.0252 -2.57636,-0.13747 -0.47186,-0.0744 -1.73288,-0.10881 -1.27221,-0.95015 1.19296,-1.34252 3.11265,-2.08975 4.72444,-2.64733 0.26841,-0.0757 0.5357,-0.15647 0.80521,-0.22745 0.19555,-0.0516 0.6136,-0.35763 0.58971,-0.13988 -0.0848,0.77284 -1.43258,0.81899 -1.8788,1.01234 -1.55939,0.63147 -3.02251,1.48074 -4.54273,2.20729 -0.57442,0.15247 -1.11621,0.23409 -1.70705,0.26768 -0.16247,0.01 -0.47422,0.1963 -0.48772,0.0196 -0.0505,-0.66051 0.21392,-0.67399 0.49025,-0.70408 1.43716,-0.13047 2.88259,-0.15152 4.32362,-0.17431 0.21211,0.007 3.79208,0.0968 3.78149,0.21275 -0.0296,0.32312 -0.42356,0.45677 -0.63535,0.68517 -0.006,-2e-4 -0.0117,-4.1e-4 -0.0174,-5.9e-4 -1.01961,-0.0439 -2.04029,-0.0915 -3.05353,-0.23106 -0.32796,-0.0495 -2.39657,-0.20831 -2.25744,-0.81962 0.34039,-0.21197 0.67202,-0.44155 1.02115,-0.6359 0.40962,-0.228 1.13641,0.0863 1.56481,0.10465 0.96515,0.19648 1.92806,0.47348 2.91556,0.4746 -0.23019,0.17681 -0.45933,0.35527 -0.69056,0.53043 -0.0262,0.0199 0.0837,-0.0308 0.0753,-0.0645 -0.0274,-0.11164 -0.39019,-0.35252 -0.40827,-0.3642 -0.38878,-0.25087 -0.61722,-0.33997 -1.04784,-0.54538 -1.49306,-0.58675 -3.03624,-1.02099 -4.6181,-1.20087 -0.20798,-0.0304 -0.4155,-0.065 -0.62393,-0.0915 -0.14077,-0.0181 -0.47763,0.10092 -0.42355,-0.0419 0.10199,-0.26939 0.42774,-0.34993 0.63935,-0.52807 0.0377,-0.0318 -0.11852,0.0367 -0.1172,0.0886 0.007,0.26931 0.43377,0.42191 0.41754,0.66797 0.71428,0.97269 1.36725,1.99784 2.10665,2.94857 0.13404,0.17235 0.46929,0.28524 0.41622,0.50367 -0.0791,0.32568 -0.46653,0.44214 -0.6998,0.6632 0.0772,-0.33952 -0.26404,-0.82684 -0.41733,-1.07962 -0.43202,-0.71246 -0.95014,-1.35909 -1.50478,-1.96016 -0.16793,-0.13381 -0.32489,-0.28566 -0.50379,-0.40128 -0.47374,-0.30608 -0.84766,-0.0862 0.16768,-0.75213 0.0716,-0.0468 -0.11551,0.15408 -0.11089,0.24504 0.0213,0.43192 0.40847,0.98332 0.57897,1.28782 1.22519,1.93673 2.48581,3.84738 3.72929,5.77011 0.0632,0.11594 0.24903,0.22918 0.18983,0.34759 -0.52039,1.04096 -0.9612,1.06299 -1.64603,0.52754 -1.06687,-1.03161 -1.90021,-2.32237 -2.74514,-3.56407 -0.81517,-1.2228 -1.56352,-2.51489 -2.70804,-3.41244 0,0 0.87473,-0.603 0.87473,-0.603 z"
       inkscape:connector-curvature="0" />
    <path
       style="fill:#000000"
       id="path3482"
       d="m 334.92304,263.61959 c -1.60071,-0.61727 -3.14835,-1.36845 -4.57985,-2.36528 -0.2404,-0.19213 -0.48574,-0.37714 -0.72118,-0.57643 -0.48699,-0.41217 -0.9336,-0.87914 -1.42214,-1.28913 -0.89003,-0.74696 -1.84181,-1.32905 -2.83687,-1.88829 -2.67122,-1.31871 -5.54114,-2.04476 -8.3317,-2.99408 -0.35641,-0.12137 -0.71281,-0.24289 -1.06922,-0.36434 0,0 0.83377,-0.61874 0.83377,-0.61874 l 0,0 c 0.35452,0.12281 0.70904,0.24555 1.06358,0.3683 2.7938,0.95799 5.66859,1.68687 8.3449,3.00726 1.00131,0.56495 1.95946,1.15242 2.85624,1.90394 0.48714,0.40824 0.93319,0.87257 1.41952,1.28198 0.23428,0.19722 0.47832,0.38028 0.71749,0.57041 1.43328,0.98699 2.97746,1.7389 4.58124,2.33771 0,0 -0.85578,0.62669 -0.85578,0.62669 z"
       inkscape:connector-curvature="0" />
    <path
       style="fill:#000000"
       id="path3484"
       d="m 332.19355,256.32737 c -2.73961,-0.55926 -5.46718,-1.18425 -8.20294,-1.76633 -1.65102,-0.36993 -3.32124,-0.59973 -5.00324,-0.69745 -0.6658,-0.13015 -1.58181,0.22819 -2.13034,-0.30935 -0.021,-0.0656 -0.0657,-0.12744 -0.0631,-0.19689 0.0388,-1.06444 2.26494,-2.03776 2.76341,-2.31407 1.29595,-0.48328 2.66201,-0.62686 4.02117,-0.70255 0.85448,-0.0322 1.70681,-0.0691 2.55439,0.065 0.50265,0.11133 0.90627,0.43259 1.32354,0.73531 0.78726,0.66627 1.61535,1.2568 2.51294,1.72899 0.75404,0.40718 1.56596,0.60418 2.37204,0.83576 -0.23245,0.007 0.92305,0.17198 0.73003,0.31443 -0.93187,0.68775 -0.68058,0.62513 -1.3346,0.65341 -1.15318,0.0254 -2.30674,0.0212 -3.46012,0.0219 -0.96947,0.0166 -1.93345,0.008 -2.8988,-0.0876 -0.56421,-0.0886 -1.1289,-0.17306 -1.69361,-0.25765 -0.28382,-0.0425 -0.60303,-0.0592 -0.87508,-0.16891 0.006,-0.0559 -0.0281,-0.13924 0.0163,-0.16793 0.3805,-0.2464 0.7819,-0.46113 1.19992,-0.61968 0.0724,-0.0275 1.29496,-0.0988 1.30488,-0.0995 0.6703,-0.0371 0.92683,-0.0422 1.60225,-0.0652 1.42055,-0.0788 2.83589,-0.0322 4.25283,0.0803 0.89959,0.10585 1.43972,-0.0328 -0.30173,0.79238 -0.10788,0.051 -0.23487,0.0112 -0.35237,0.0128 -0.15833,0.003 -0.3167,0.004 -0.47506,0.007 -1.13137,0.0185 -2.25788,0.0368 -3.38172,-0.11819 -0.92472,-0.15987 -1.84782,-0.32359 -2.78171,-0.4029 -0.57201,-0.0425 -1.15393,0.0112 -1.69365,-0.22925 -0.34028,-0.27158 -0.5895,-0.63212 -0.93699,-0.8945 -0.60522,-0.36538 -1.25264,-0.60429 -1.91706,-0.80036 0.12102,0.10147 -0.2615,-0.0807 -0.19622,-0.12138 0.38486,-0.24013 0.7698,-0.49359 1.18973,-0.649 0.12863,-0.0475 1.77202,0.10498 1.94469,0.11515 1.59509,0.0953 3.19231,0.13159 4.78943,0.15327 1.20737,-0.0338 2.40895,0.0848 3.61106,0.18671 0.76014,0.10432 1.53229,-0.0802 -0.49328,0.75672 -0.10038,0.0415 -1.07532,-0.0247 -1.08344,-0.0252 -2.25107,-0.12009 -4.50448,-0.13269 -6.75082,-0.3401 -0.83132,-0.0911 -1.66501,-0.16586 -2.49311,-0.28945 -0.12234,-0.0182 -0.24311,-0.0475 -0.36559,-0.0645 -0.0536,-0.008 -0.20971,0.0189 -0.16182,-0.008 0.41338,-0.23444 0.8504,-0.41561 1.2756,-0.62341 1.20925,0.0601 2.41713,0.1714 3.61852,0.33365 1.24061,0.19607 2.44789,0.56251 3.61907,1.04233 0.48747,0.2267 1.01852,0.27527 1.46305,0.59613 0,0 -0.87183,0.61127 -0.87183,0.61127 l 0,0 c -0.44499,-0.29524 -0.97196,-0.34826 -1.44597,-0.58058 -1.16363,-0.47932 -2.36555,-0.83781 -3.60004,-1.02411 -1.20266,-0.1571 -2.41094,-0.2681 -3.62114,-0.32453 0.13638,-0.22987 0.23808,-0.48902 0.40897,-0.68958 0.0117,-0.0143 0.44195,0.0741 0.51796,0.0862 0.82237,0.12886 1.65088,0.20708 2.47735,0.29606 2.24976,0.20268 4.50657,0.22456 6.76145,0.32613 0.20758,0.008 0.41503,0.0219 0.62273,0.024 0.15431,0.001 0.47337,-0.1804 0.46281,-0.0128 -0.0554,0.88097 -0.75736,0.59258 -1.17774,0.56191 -1.19872,-0.10508 -2.39725,-0.215 -3.60135,-0.1853 -1.59733,-0.0252 -3.19467,-0.0645 -4.79005,-0.15821 -0.0789,-0.004 -1.32426,-0.0761 -1.45737,-0.0817 -0.16374,-0.007 -0.50688,0.1656 -0.4915,-0.0128 0.0723,-0.83595 0.40605,-0.63946 0.69368,-0.53874 0.67104,0.20615 1.32671,0.45644 1.93607,0.83322 0.33693,0.26223 0.58527,0.61371 0.925,0.86976 0.5381,0.20951 1.11044,0.15503 1.6723,0.20613 0.93231,0.0859 1.85333,0.25661 2.77764,0.41163 1.12246,0.1437 2.24838,0.12185 3.37719,0.10257 0.15896,-0.003 0.31794,-0.007 0.47684,-0.0112 0.11735,-0.004 0.39547,-0.13811 0.35163,-0.0195 -0.32108,0.86942 -0.77302,0.57676 -1.36572,0.53044 -1.41258,-0.11356 -2.82439,-0.15184 -4.24043,-0.0757 -0.77909,0.0282 -1.55959,0.051 -2.33666,0.12264 -0.19164,0.0177 -0.58261,0.27693 -0.57362,0.0674 0.0312,-0.72549 0.92788,-0.36786 0.47156,-0.52971 0.81226,0.28058 1.71665,0.20532 2.54417,0.41163 0.9629,0.0906 1.92534,0.0918 2.89171,0.081 1.1543,0.001 2.3092,0.01 3.463,-0.0327 0.10153,-0.01 0.36954,-0.11308 0.30453,-0.0276 -0.62231,0.81788 -0.69246,0.56057 -1.38535,0.36737 -0.81152,-0.22814 -1.62152,-0.44897 -2.37805,-0.85827 -0.8983,-0.4821 -1.72994,-1.07699 -2.52788,-1.73604 -0.40744,-0.29302 -0.80358,-0.59994 -1.29634,-0.69467 -0.84159,-0.12519 -1.68935,-0.0824 -2.53647,-0.0524 -1.35226,0.0798 -2.71207,0.22709 -3.99558,0.73014 0.072,-0.0809 0.31353,-0.27987 0.21602,-0.24249 -0.35589,0.13653 -1.17517,0.87191 -1.26556,1.32183 -0.0104,0.0477 0.0221,0.0948 0.033,0.14211 0.50894,0.44696 1.47285,0.12249 2.0807,0.25731 1.67961,0.10749 3.34642,0.34751 4.99434,0.72303 2.73762,0.59079 5.46656,1.23533 8.21798,1.74441 0,0 -0.83849,0.64774 -0.83849,0.64774 z"
       inkscape:connector-curvature="0" />
    <path
       style="fill:#000000"
       id="path3486"
       d="m 333.61833,262.80253 c -0.94161,-0.38854 -2.05751,-0.71619 -2.69188,-1.62958 -0.26817,-0.51403 -0.0185,-0.94658 0.1336,-1.44139 0.19749,-0.55742 0.31331,-0.58743 1.20034,-0.62499 0.009,-3.8e-4 0.4325,0.8727 0.46742,0.94319 0.39147,0.77246 0.75973,1.59079 1.39191,2.16271 0.35933,0.38782 0.79155,0.54387 1.27936,0.61637 0.46364,-0.003 0.90714,0.13525 1.36069,0.21817 1.22275,-0.0442 0.0591,0.84546 -0.69195,0.67212 -1.15562,-0.0356 -0.0695,-0.80016 0.68657,-0.85246 0.86989,-0.007 1.74272,-0.0753 2.60245,-0.22158 0.67466,-0.0883 1.32105,-0.30732 1.98292,-0.45775 0.84597,-0.16311 1.71029,-0.1041 2.56039,-0.2138 0.0855,-0.0321 0.3348,-0.14514 0.25647,-0.096 -0.26031,0.16338 -0.51763,0.34678 -0.80542,0.44059 -0.0516,0.0169 -0.0478,-0.1075 -0.0846,-0.15056 -0.0855,-0.10005 -0.18016,-0.19061 -0.27881,-0.27482 -0.43124,-0.36815 -0.5828,-0.4327 -1.08402,-0.74422 -1.64989,-0.958 -3.47595,-1.43857 -5.29088,-1.86126 -0.19336,-0.0557 -0.39004,-0.0992 -0.58009,-0.16714 -0.83898,-0.29997 0.10373,-0.66003 0.67498,-0.99194 0.0963,-0.0559 0.80863,-0.15358 0.82647,-0.1563 1.53827,-0.1872 3.08884,-0.1985 4.63484,-0.22206 1.20834,-0.10399 2.43232,-0.0775 3.63473,-0.25905 -0.33771,0.21347 -0.65535,0.47019 -1.01316,0.64038 -0.0937,0.0444 -0.20436,-0.01 -0.30658,-0.0128 -0.12423,-0.003 -0.24857,-0.007 -0.37287,-0.008 -0.3922,-0.007 -0.78448,-0.004 -1.17669,-0.004 -1.30129,0.12664 -2.60736,0.1707 -3.91011,0.27115 -1.65983,0.1169 -3.32037,0.26749 -4.98463,0.23539 -0.24934,-0.0233 -0.50083,-0.0273 -0.74801,-0.0698 -0.5907,-0.10181 -1.18493,-0.32213 -1.74679,-0.52898 -1.22041,-0.44929 -2.42093,-0.96041 -3.62301,-1.46385 -1.73203,-0.77345 -3.46345,-1.56715 -5.10546,-2.55118 -0.7164,-0.52356 -0.26766,-0.59448 0.66135,-1.09245 0.15093,-0.0809 0.33579,-0.0233 0.50392,-0.0292 0.92533,0.0303 1.84531,-0.0491 2.76742,-0.12169 0.17868,-0.0257 0.35739,-0.0513 0.53608,-0.0769 0,0 -0.82361,0.66962 -0.82361,0.66962 l 0,0 c -0.17953,0.0238 -0.35904,0.0477 -0.53857,0.0715 -0.92513,0.0727 -1.84833,0.1437 -2.77653,0.12536 -0.0947,0.007 -0.18981,0.008 -0.28416,0.0188 -0.0692,0.008 -0.25887,0.088 -0.20604,0.0386 0.22608,-0.21198 0.4953,-0.36223 0.7435,-0.54244 0.0151,-0.0112 -0.0496,0.016 -0.0442,0.0346 0.03,0.10443 0.30115,0.27452 0.32354,0.29135 1.62676,0.99359 3.3484,1.78935 5.07296,2.55594 1.20345,0.50123 2.40527,1.01189 3.62953,1.45088 0.57066,0.2046 1.144,0.40767 1.74076,0.50352 0.2462,0.0395 0.49617,0.0425 0.74425,0.0636 1.66196,0.0252 3.32052,-0.1209 4.97782,-0.24181 1.30782,-0.0997 2.61828,-0.15471 3.92505,-0.27331 0.51798,1.5e-4 1.03686,-0.004 1.55461,0.016 0.10523,0.004 0.36574,-0.083 0.31542,0.0178 -0.14668,0.29384 -0.44578,0.45992 -0.66867,0.68988 -1.20379,0.13494 -2.4172,0.15551 -3.62437,0.23596 -1.54637,0.0243 -3.09816,0.0367 -4.63529,0.2417 -0.16524,0.0298 -0.33184,0.0517 -0.4957,0.0894 -0.10904,0.0251 -0.39782,0.18766 -0.32172,0.0988 0.82512,-0.96152 0.4522,-0.53624 0.9842,-0.34641 0.18754,0.067 0.38121,0.11133 0.57183,0.1671 1.82024,0.43831 3.65377,0.92483 5.31042,1.88774 0.47724,0.29701 1.03923,0.59011 1.40472,1.05933 0.0602,0.0772 0.20294,0.18901 0.13945,0.26303 -0.52066,0.60777 -0.71678,0.63127 -1.23364,0.7811 -0.8503,0.09 -1.71282,0.0472 -2.5553,0.22467 -0.65903,0.16225 -1.31008,0.35666 -1.98292,0.44843 -0.86578,0.13381 -1.73989,0.20214 -2.61396,0.22177 -0.0613,0.007 -0.22741,0.0683 -0.18393,0.0206 0.21188,-0.23201 0.41972,-0.6909 0.70959,-0.60523 0.19948,0.059 -0.0341,0.007 0.2602,0.0713 0.0717,0.016 0.1437,0.03 0.21545,0.0451 0.0632,0.0128 0.23062,-0.016 0.18979,0.0383 -0.19691,0.26143 -0.39374,0.67637 -0.70388,0.66417 -0.0895,-0.003 -0.17728,-0.0295 -0.26611,-0.0429 -0.0767,-0.0112 -0.15341,-0.0233 -0.23014,-0.0351 -0.45193,-0.0876 -0.8973,-0.20713 -1.35902,-0.21638 -0.49989,-0.0891 -0.94125,-0.27329 -1.30908,-0.66994 -0.6309,-0.59433 -1.00875,-1.41574 -1.4105,-2.19944 -0.12044,-0.24183 -0.46258,-0.90824 -0.45739,-0.91625 0.19196,-0.29712 0.50396,-0.47619 0.76296,-0.70506 0.0711,-0.0628 -0.33017,0.375 -0.13726,0.25955 -0.12526,0.46156 -0.42166,0.86304 -0.18287,1.34803 0.61954,0.89425 1.73411,1.20109 2.65385,1.57258 0,0 -0.85209,0.63327 -0.85209,0.63327 z"
       inkscape:connector-curvature="0" />
    <path
       style="fill:#000000"
       id="path3488"
       d="m 414.33088,721.68937 c 3.3781,-1.09473 6.611,-2.65986 9.89919,-4.03403 1.77358,-0.70142 3.56421,-1.36463 5.37259,-1.95258 0.66392,-0.11738 1.29233,-0.37788 1.95064,-0.52045 0.91713,-0.29878 1.79782,-0.71894 2.68088,-1.11998 1.21326,-0.54837 2.47033,-0.99781 3.65552,-1.61707 0.32334,-0.16878 0.65206,-0.30082 0.96591,-0.4895 0,0 -1.14463,1.00154 -1.14463,1.00154 l 0,0 c -0.31842,0.17137 -0.6464,0.31373 -0.96679,0.48082 -1.19622,0.58713 -2.43554,1.06527 -3.6502,1.60419 -0.89027,0.403 -1.77631,0.83831 -2.71042,1.10751 -0.64993,0.15901 -1.28299,0.3907 -1.93818,0.52693 -1.79177,0.59339 -3.57572,1.22335 -5.33179,1.93262 -3.30129,1.37789 -6.54591,2.94873 -9.93776,4.04573 0,0 1.15504,-0.96573 1.15504,-0.96573 z"
       inkscape:connector-curvature="0" />
    <path
       style="fill:#000000"
       d="m 438.87061,714.83292 -1.30328,0.7227 c 0.28279,4.1303 1.05669,8.18631 2.04638,12.17674 0.46661,1.65491 0.98416,3.29813 1.58909,4.89999 0.30865,0.81731 0.68239,1.59913 0.9889,2.41729 0.29083,0.68328 0.0804,1.0385 -0.27438,1.59178 l 1.3433,-0.64168 c 0.36158,-0.58798 0.49561,-1.04055 0.20292,-1.72575 -0.31615,-0.8112 -0.69567,-1.58908 -1.00889,-2.40171 -0.61315,-1.59066 -1.1325,-3.22892 -1.60339,-4.87506 -0.99484,-3.98183 -1.77274,-8.03277 -1.98065,-12.1643 z"
       id="path3490"
       inkscape:connector-curvature="0" />
    <path
       style="fill:#000000"
       id="path3492"
       d="m 441.38722,725.10193 c -1.42967,-3.00666 -2.7293,-6.08984 -3.98508,-9.18747 -0.32303,-0.9709 -0.88948,-1.89219 -1.07594,-2.92092 -0.0215,-0.1185 -0.0565,-0.49332 0.12701,-0.57661 0.51716,-0.23461 1.06093,-0.39233 1.59139,-0.58849 1.22574,1.62643 1.66625,3.7541 1.99674,5.78078 0.32012,1.42318 0.16709,2.85551 0.14793,4.29158 0.0117,0.86819 0.16212,1.73303 0.38698,2.56429 0.13974,0.69353 0.57342,1.22065 0.88605,1.81939 0.28871,0.54644 0.72186,0.96222 1.03213,1.49066 0.5426,1.21599 0.39436,2.62273 0.19125,3.90623 -0.38518,2.03108 -1.17754,3.90217 -2.12543,5.68396 -0.52046,0.77129 -1.01306,1.52602 -1.21373,2.4672 -0.14737,1.14959 -0.12234,2.31784 -0.12087,3.47629 0.005,0.92879 0.0104,1.85757 0.0132,2.78636 0.19614,0.9714 0.18036,1.94307 0.13697,2.93027 -0.16048,1.58191 -0.47267,3.13985 -0.796,4.69014 -0.39996,1.80041 -0.64492,3.63355 -0.90359,5.46242 -0.0803,0.47767 -0.39775,2.33218 -0.46475,2.85144 -0.0407,0.3149 -0.0909,0.63169 -0.0839,0.94959 0.003,0.14402 0.0159,0.31723 0.114,0.41381 0.0555,0.0545 0.27231,-0.13413 0.20448,-0.10005 -0.32673,0.16444 -0.65414,0.3273 -0.98122,0.49096 0.69739,-1.00713 0.78864,-1.53488 0.36426,-2.67774 -0.97123,-2.41536 -1.45512,-5.01337 -1.86094,-7.60016 -0.21175,-1.46036 -0.31964,-2.96066 -0.006,-4.40992 0.12555,-0.6882 0.40612,-1.23843 0.9108,-1.66546 0.82443,-0.58363 1.82595,-1.59477 2.63139,-0.58239 0.41856,0.83696 -0.0873,2.14687 -0.32934,2.99715 -0.37954,1.17659 -0.66054,2.38468 -0.96901,3.58419 -0.42768,1.65888 -0.57582,3.37941 -0.93335,5.05378 -0.039,0.25578 -0.0899,0.39888 -0.0429,0.64338 0.007,0.0363 0.0202,0.0791 0.05,0.097 0.0261,0.016 0.1147,-0.0289 0.0881,-0.0143 -0.34249,0.18271 -0.67392,0.4016 -1.03892,0.5219 -0.10084,0.0332 0.14428,-0.16723 0.21634,-0.25083 0.50849,-0.9778 0.30024,-2.24794 0.26949,-3.33144 -0.18304,-1.46781 0.1377,-2.85373 0.40734,-4.27676 0.30366,-1.71436 0.62719,-3.42177 0.83024,-5.15475 0.0664,-1.00719 0.15663,-2.0024 0.3121,-2.99773 0.11766,-0.80471 0.14951,-1.61449 0.29066,-2.41503 0.19324,-0.85791 0.50259,-1.6637 0.82221,-2.47116 0.24056,-0.82648 0.5459,-1.63191 0.74913,-2.47112 0.30417,-0.94913 0.57793,-1.90245 0.75435,-2.89014 0.13989,-0.86319 0.16275,-1.74042 0.17517,-2.61461 -0.0577,-0.74582 0.0977,-1.46335 0.21567,-2.19067 0.13434,-0.94395 0.30828,-1.87851 0.41093,-2.82836 0.0863,-0.87357 0.10154,-1.75252 0.1102,-2.63026 -0.0395,-0.44493 -0.11343,-0.88439 -0.25395,-1.30408 0,0 1.28423,-0.77685 1.28423,-0.77685 l 0,0 c 0.15009,0.4367 0.22744,0.89359 0.27642,1.35709 -0.007,0.88306 -0.0218,1.76728 -0.10546,2.64647 -0.0996,0.95205 -0.27101,1.88888 -0.40332,2.83424 -0.11204,0.72169 -0.29066,1.42896 -0.22766,2.16919 -0.0117,0.88263 -0.0314,1.76826 -0.16629,2.64081 -0.16989,0.99037 -0.42945,1.95114 -0.74716,2.89726 -0.1929,0.85055 -0.51456,1.65526 -0.74264,2.49444 -0.30727,0.80377 -0.63578,1.5906 -0.83298,2.43998 -0.14604,0.79957 -0.18465,1.60563 -0.29276,2.41189 -0.15619,0.99518 -0.26384,1.98714 -0.32222,2.99572 -0.20449,1.73757 -0.52884,3.44943 -0.83225,5.16852 -0.25578,1.41206 -0.6007,2.78499 -0.41674,4.24104 0.033,1.12234 0.23066,2.39067 -0.2121,3.43523 -0.70661,0.92112 -2.30972,2.12351 -1.94223,0.31338 0.3826,-1.67145 0.52108,-3.39736 0.93751,-5.0623 0.3073,-1.20057 0.57457,-2.41284 0.96377,-3.58741 0.26785,-0.90463 0.14004,-0.41541 0.34803,-1.35289 0.10962,-0.49401 0.30983,-1.0219 0.0415,-1.49179 -0.65559,-0.76884 -1.8563,0.3722 -0.009,-0.83808 -0.51541,0.3967 -0.83291,0.87043 -0.95464,1.56585 -0.33922,1.42875 -0.24865,2.91559 -0.0426,4.36396 0.39274,2.57671 0.86545,5.16676 1.86051,7.55951 0.45862,1.17054 0.38898,1.77503 -0.27954,2.85143 -0.52065,0.35277 -1.0094,0.76881 -1.56191,1.05828 -0.34599,0.18127 -0.42641,-0.41085 -0.43003,-0.55669 -0.0319,-1.28399 0.4571,-2.54345 0.55087,-3.81094 0.2434,-1.83376 0.49564,-3.66775 0.89481,-5.47072 0.31759,-1.54185 0.6253,-3.08902 0.79622,-4.65964 0.0453,-0.98455 0.0719,-1.95295 -0.13858,-2.92002 -0.003,-0.92969 -0.007,-1.85935 -0.0104,-2.78904 -8e-5,-1.16774 -0.0215,-2.3432 0.10303,-3.50441 0.1758,-0.96878 0.64535,-1.74807 1.20356,-2.51772 0.95433,-1.76646 1.76894,-3.61459 2.15601,-5.63771 0.20519,-1.2416 0.3553,-2.60744 -0.15992,-3.79038 -0.31244,-0.52895 -0.75265,-0.94482 -1.03682,-1.49762 -0.31759,-0.60928 -0.75675,-1.14789 -0.89904,-1.85321 -0.23231,-0.84427 -0.38788,-1.72405 -0.40782,-2.60652 0.0104,-1.42927 0.21233,-2.85674 -0.11707,-4.27587 -0.31596,-1.96953 -0.72325,-4.07788 -1.9448,-5.63692 0.33323,-0.29592 0.6843,-0.56944 0.99968,-0.88774 0.0474,-0.0478 -0.15211,0.004 -0.18441,0.065 -0.0525,0.0994 -0.0473,0.22899 -0.0313,0.3423 0.14715,1.03011 0.73965,1.95334 1.03895,2.92157 1.242,3.09555 2.53726,6.17573 4.00749,9.15064 0,0 -1.26433,0.79868 -1.26433,0.79868 z"
       inkscape:connector-curvature="0" />
    <path
       style="fill:#000000"
       id="path3494"
       d="m 438.00907,755.53319 c -0.54212,1.91841 -0.92399,3.88814 -1.32816,5.84606 -0.20075,1.05287 -0.42603,2.10583 -0.75369,3.12117 -0.18543,0.66506 -0.27691,1.31842 -0.61518,1.91588 -0.31587,0.4914 -0.54479,1.01712 -0.7694,1.56127 -0.34105,0.84415 -0.42678,0.93662 -1.70146,0.96858 -0.043,10e-4 -0.0693,-0.42302 -0.096,-0.7539 0.24498,-1.51451 0.73432,-2.97932 1.13775,-4.45434 0.36902,-1.77078 0.7519,-3.53854 1.12453,-5.30918 0.16032,-0.64757 0.0411,-1.27986 1.20325,-1.04631 0.20531,0.0413 -0.18358,0.40891 -0.26743,0.61728 -0.10974,0.27274 -0.20887,0.55047 -0.31331,0.8257 -0.64225,1.8513 -1.03497,3.78207 -1.46933,5.69883 -0.21664,1.10593 -0.40036,2.21717 -0.61109,3.32461 -0.11124,0.72985 -0.35517,1.41925 -0.47588,2.14762 -0.0944,0.66076 -0.23286,1.32569 -0.41642,1.9647 -0.24173,0.63148 -0.33681,1.30036 -0.39282,1.97663 0.007,0.78289 -0.15899,1.54294 -0.26564,2.31247 -0.0303,0.76151 -0.22292,1.49023 -0.35919,2.23265 -0.0723,0.76661 -0.25004,1.51222 -0.37198,2.26994 -0.12921,0.6657 -0.3838,1.28105 -0.60986,1.91005 -0.15466,0.64684 -0.27865,1.29835 -0.4344,1.94632 -0.18202,0.81016 -0.19362,1.64733 -0.21224,2.47642 -0.0729,1.27976 -0.2655,2.53947 -0.47675,3.79857 -0.16105,0.90653 -0.22691,1.82639 -0.25856,2.74755 -0.0482,1.0494 -0.20081,2.09033 -0.28231,3.13841 0.006,0.89854 -0.17106,1.76759 -0.31486,2.64572 -0.11527,0.75217 -0.13492,1.5156 -0.14919,2.27638 -0.0104,0.80064 -0.007,1.60138 -0.006,2.40207 10e-4,0.80598 10e-4,1.61195 10e-4,2.41792 2.2e-4,0.80565 2.2e-4,1.61131 2.2e-4,2.41695 0.0132,0.81573 0.0185,1.62182 -0.0999,2.4284 -0.14136,0.795 -0.20722,1.60065 -0.24416,2.40831 -0.0368,0.8938 -0.20453,1.77425 -0.29323,2.66392 -0.0781,0.85206 -0.0927,1.70864 -0.10141,2.56422 -0.005,0.80775 -0.003,1.6155 -0.001,2.42326 9.8e-4,0.80492 0.001,1.60985 0.001,2.41477 -0.003,0.76884 -0.0355,1.53031 0.0994,2.28747 0.15299,0.71104 0.21013,1.43784 0.2448,2.1652 0.0289,0.79673 0.0275,1.59424 0.028,2.39144 0.0258,0.35848 -0.0625,1.42834 0.39527,1.53929 -0.3879,0.18855 -0.75468,0.44092 -1.16372,0.56565 -0.0852,0.0259 0.0866,-0.16864 0.13259,-0.25122 0.24278,-0.43556 0.4227,-0.84237 0.56273,-1.33096 0.26692,-0.75625 0.58002,-1.47183 0.76077,-2.26137 0.20348,-1.06843 0.20708,-2.16635 0.22301,-3.25295 0.009,-1.26699 -0.16117,-2.52705 -0.26138,-3.78795 -0.0866,-1.11634 -0.0988,-2.23721 -0.10697,-3.35684 0.0377,-0.96373 -0.0117,-1.90598 -0.16678,-2.85345 -0.11926,-0.66495 -0.30706,-1.3214 -0.4961,-1.96813 -0.2627,-0.73652 -0.30865,-1.52608 -0.44686,-2.29284 -0.39046,-1.45859 -0.73062,-2.93576 -1.15698,-4.38225 -0.0613,-0.16733 -0.11147,-0.33996 -0.18383,-0.502 -0.0861,-0.19304 -1.57913,-1.5342 1.04476,-0.54157 0.23981,0.0908 -0.0117,0.5534 -0.005,0.82997 0.0104,0.40204 0.0355,0.80345 0.0531,1.20518 0.0949,2.4208 0.24519,4.83222 0.54595,7.23295 0.1095,1.0953 0.26571,2.18117 0.4176,3.26999 0.23728,0.90502 0.41031,1.82002 0.50754,2.75506 0.0746,0.84313 0.08,1.69085 0.0841,2.53712 0.001,0.80682 -10e-4,1.61364 -0.003,2.42048 -0.028,1.00717 0.13228,2.00348 0.21451,3.00484 0.0893,1.11702 0.12805,2.23756 0.14718,3.35827 0.0649,0.96264 -0.0537,1.90917 -0.15771,2.86194 -0.11401,1.05556 -0.16549,2.11697 -0.19295,3.17885 -0.017,0.83487 -0.0155,1.66999 -0.0149,2.50502 -0.007,0.80871 0.17391,1.60164 0.26574,2.40174 0.0954,0.8146 0.11528,1.62256 0.006,2.43445 -0.15556,0.78131 -0.15552,1.58629 -0.28063,2.37075 -0.18855,0.78242 -0.26617,1.58619 -0.31661,2.3909 -0.1178,0.82328 -0.36081,1.6223 -0.60338,2.41087 -0.23964,0.77652 -0.39911,1.57161 -0.6997,2.32484 -0.26518,0.75093 -0.4899,1.52031 -0.78962,2.25655 -0.18427,0.32777 -0.67455,1.34942 -1.23512,0.40898 -0.19711,-0.33068 0.39639,-0.65989 0.58974,-0.99321 0.79824,-1.3761 0.77521,-1.36014 1.54081,-2.78004 1.054,-1.84958 1.6291,-3.67539 1.77385,-5.82911 -0.0669,-0.86729 0.24538,-2.01054 -0.23678,-2.78461 -0.29511,-0.0925 -1.9906,0.92403 0.69308,-0.5167 0.0939,-0.0503 -0.17582,0.12488 -0.25754,0.19632 -0.11066,0.0966 -0.21242,0.20483 -0.31862,0.30726 -0.86358,0.86208 -1.40546,1.9826 -1.9632,3.08233 -0.42446,0.74854 -0.60013,1.60211 -0.8154,2.4379 -0.13756,0.73748 -0.27603,1.46765 -0.44985,2.19639 -0.0393,0.33123 0.21467,1.64428 -1.01948,0.53938 -0.22547,-0.20186 0.19237,-0.60128 0.26521,-0.90921 0.24204,-1.02314 0.23118,-1.28235 0.33837,-2.34993 0.14748,-2.71396 0.61734,-5.38315 1.26605,-8.00301 0.34432,0.0938 0.0231,-0.81582 0.30548,-0.88846 0.4374,-0.11261 0.98508,-0.38288 1.34574,-0.0906 0.26529,0.21502 -0.073,0.71708 -0.13653,1.07069 -0.163,0.90729 -0.43195,1.83702 -0.66775,2.72155 -0.19456,1.20646 -1.28914,3.76166 -0.99189,4.97082 0.28927,-0.0491 2.09882,-0.93939 -0.93828,0.57951 -0.078,0.0391 0.13272,-0.12042 0.18776,-0.19228 0.17333,-0.22623 0.40573,-0.66687 0.53191,-0.89138 0.10246,-0.20469 0.20453,-0.40961 0.30736,-0.61409 0.10176,-0.20219 0.34347,-0.70042 0.48631,-0.91322 0.31824,-0.47415 1.12669,-0.61958 1.52162,-0.59371 0.15354,0.01 -0.0224,0.33443 -0.0336,0.50164 -0.37142,1.87583 -1.17497,3.5999 -1.82891,5.36985 -0.48123,1.14249 -0.85379,2.32967 -1.17869,3.53392 -0.17626,0.80493 -0.40362,1.59835 -0.7038,2.35852 -0.24412,0.57077 -0.45307,1.15331 -0.66905,1.7369 -0.21273,0.59559 -0.41712,1.19025 -0.6894,1.75727 -0.39861,0.0982 -0.81828,0.46508 -1.19582,0.29458 -0.0774,-0.0349 1.72574,-3.58496 1.88005,-3.90614 0.46554,-0.9921 0.77748,-2.05145 0.76774,-3.17092 -0.0528,-0.77265 -0.24257,-1.53313 -0.51303,-2.24788 -0.0408,-0.0713 -0.0718,-0.15056 -0.12249,-0.21408 -0.0594,-0.0748 -0.16995,-0.17439 -0.27594,-0.12536 -0.0444,0.0206 -0.14414,0.13636 -0.10142,0.11228 1.04981,-0.59114 1.43809,-1.0216 0.96422,-0.52737 -0.42927,0.93335 -0.80434,1.91385 -1.1716,2.88274 -0.39726,1.06734 -0.60356,2.19157 -0.70403,3.33309 -0.0166,0.75987 -0.0817,1.51559 -0.30218,2.23971 -0.20246,0.54693 -0.50204,1.04886 -0.78464,1.55137 -0.2608,0.52273 -0.50576,1.05334 -0.76584,1.57663 -0.25417,0.52741 -0.43947,1.1068 -0.77735,1.57847 -0.35765,0.42995 -0.63903,0.91879 -0.92031,1.40811 -0.25425,0.52217 -0.51383,1.03393 -0.82169,1.52172 -0.34151,0.58116 -0.5259,1.242 -0.84707,1.83335 -0.3438,0.69939 -0.60516,1.44313 -0.92296,2.15628 -0.4014,0.78824 -0.84202,1.54657 -1.29046,2.30378 -0.33751,0.70178 -0.74193,1.35752 -1.16186,2.00257 -0.32359,0.56206 -0.68451,1.09929 -1.09226,1.59225 -0.35254,0.43336 -0.72217,0.8517 -1.10487,1.2537 -0.47457,0.36344 -0.91425,0.77572 -1.36459,1.17311 -0.55421,0.47903 -1.11454,0.94907 -1.68136,1.41042 -0.58881,0.43581 -1.16291,0.90786 -1.69523,1.42359 -0.79096,0.76311 -1.59279,1.72907 -2.71533,1.8569 -0.61922,-0.0698 -1.04421,-0.45062 -1.43894,-0.94306 -0.38777,-0.59895 -0.44368,-1.32848 -0.48898,-2.03736 0.0166,-0.82642 -0.14312,-1.17359 -0.54303,-1.82142 -0.53373,-0.71782 -0.87976,-1.56229 -1.30784,-2.35221 -0.52332,-0.58893 -0.79829,-1.33331 -1.09922,-2.06882 -0.30051,-0.90851 -0.63162,-1.80353 -0.94594,-2.70663 -0.66647,-1.92119 -1.39083,-3.81345 -1.9302,-5.78334 -0.34504,-1.20972 -0.65335,-2.43358 -0.93929,-3.6617 -0.23218,-0.96344 -0.68348,-1.81876 -1.09118,-2.7005 -0.81153,-1.86114 -1.42227,-3.81286 -2.08145,-5.74094 -0.8656,-2.67488 -1.63437,-5.38816 -2.30623,-8.12839 -0.31307,-1.41198 -0.55503,-2.8374 -0.85781,-4.25175 -0.17128,-0.68637 -0.15918,-1.36557 0.0386,-2.03978 0.52838,-1.01961 1.45538,-1.33819 2.39396,-1.04904 0.56668,0.26349 0.8778,0.66404 1.07599,1.2892 0.16928,0.85536 0.16692,1.73685 0.17502,2.60787 -0.0877,0.85595 -0.21661,1.04131 -1.60911,1.00941 -0.18534,-0.004 -0.64797,-2.03483 -0.69864,-2.25874 -0.37004,-1.7366 -0.48059,-3.50642 -0.32377,-5.27725 0.1955,-1.26294 0.35749,-2.54764 0.76743,-3.75564 0.0926,-0.27293 0.5872,-1.48696 0.68029,-1.71768 0.52508,-1.25984 0.95106,-2.5772 1.57285,-3.78783 0.003,-0.007 0.81141,-1.41766 0.8335,-1.45626 0.5982,-0.84245 1.05818,-1.7712 1.50176,-2.71491 0.29636,-0.6505 0.35107,-1.36947 0.38643,-2.08246 0.0301,-0.66841 0.0648,-1.37441 -0.33513,-1.92252 -0.51067,-0.43056 -1.13434,-0.39262 -1.73756,-0.30068 -0.67971,10e-4 -2.79239,1.27036 -0.52626,-0.0632 -0.59968,0.43327 -0.78679,1.15594 -1.02216,1.85447 -0.45318,1.35703 -0.8043,2.7333 -1.05137,4.15204 -0.1977,1.25249 -0.26649,2.52183 -0.29536,3.79038 -0.0132,0.84932 -0.006,1.69879 -0.003,2.54818 0.072,0.47746 -0.2449,1.52333 0.28493,1.75308 0.3612,-0.0978 1.54265,-0.43567 -0.85395,0.54526 -0.0969,0.0397 0.14981,-0.15837 0.20644,-0.25278 0.0697,-0.11611 0.12584,-0.24268 0.16895,-0.37322 0.1235,-0.37415 0.16315,-0.74577 0.2233,-1.13565 0.28241,-1.38472 0.35313,-2.78395 0.29525,-4.19562 -0.12058,-0.90734 -0.009,-1.80084 0.0873,-2.70157 0.25805,-1.09449 0.46144,-2.20761 0.73512,-3.29763 0.18343,-0.74142 0.41438,-1.46935 0.71907,-2.16225 0.29051,-0.51066 0.54597,-1.02748 0.78227,-1.57046 0.29067,-0.70806 0.52391,-1.43928 0.80701,-2.15048 0.2201,-0.60782 0.4763,-1.20136 0.75338,-1.78099 0.20004,-0.60715 0.44077,-1.19225 0.69576,-1.77463 0.24368,-0.6584 0.54051,-1.29778 0.88219,-1.9022 0.36627,-0.63542 0.57021,-1.34724 0.92264,-1.99288 0.43071,-0.73181 0.67396,-1.56483 0.98625,-2.35896 0.35749,-0.87355 0.58706,-1.79392 0.86698,-2.69639 0.26842,-0.76051 0.46248,-1.54745 0.70325,-2.31741 0.28987,-0.85908 0.38261,-1.76987 0.57541,-2.65608 0.17699,-0.79337 0.23654,-1.60538 0.39265,-2.40301 0.0147,-0.0523 0.17062,-0.95485 0.18152,-0.93248 0.0217,0.0443 -0.005,0.16002 0.0396,0.14434 0.39397,-0.14115 0.75428,-0.3759 1.13141,-0.56385 -0.74704,1.50346 -1.5739,2.94367 -2.25384,4.48909 -0.732,1.98435 -1.37589,4.01251 -1.90701,6.07188 -0.35326,1.11978 -0.51321,2.29168 -0.80489,3.42869 -0.17577,0.27597 -0.21766,1.47223 0.31141,1.04638 -0.32919,0.18408 -0.61778,0.56551 -0.98758,0.55225 -0.23462,-0.008 0.32667,-0.36892 0.47096,-0.57075 0.21161,-0.29598 0.39823,-0.61221 0.59492,-0.92017 0.83179,-1.30237 1.59428,-2.6413 2.35314,-3.99527 1.59097,-2.70696 2.81822,-5.61651 3.67029,-8.6892 0.34009,-1.16538 0.41038,-2.31256 0.0772,-3.47419 -0.50624,-1.50593 -0.83565,-3.07604 -1.12175,-4.64676 -0.18086,-1.36364 -0.4327,-2.7615 -0.20829,-4.13356 0.27483,-0.82265 0.96472,-1.35954 1.53413,-1.94073 0.89496,-0.79736 1.65044,-1.74393 2.35793,-2.73293 0.6999,-1.08223 0.20113,-0.61432 1.52744,-1.28043 -0.10222,0.24405 -0.22692,0.47836 -0.30679,0.73213 -0.23251,0.73872 -0.88047,3.38247 -1.01657,3.95267 -0.51077,2.13994 -0.99,4.28422 -1.53526,6.41437 -0.59334,2.69192 -1.854,5.04193 -3.1879,7.35825 -1.27821,2.14273 -2.26483,4.44654 -3.01361,6.86292 -0.49278,1.92751 -1.05814,3.85693 -1.26772,5.85194 -0.37236,0.68853 0.37216,0.17062 0.2716,0.15279 -0.23138,-0.0411 -0.6945,0.34355 -0.69857,0.088 -0.007,-0.4367 0.47279,-0.70648 0.68276,-1.07849 0.67313,-1.19255 0.87146,-1.77322 1.42623,-3.08291 1.72827,-4.53267 2.7069,-9.33099 3.85877,-14.05858 0.47216,-1.87011 1.04852,-3.71109 1.76569,-5.48711 0.27439,-0.67951 0.57067,-1.41617 0.95407,-2.03625 0.43116,-0.0572 0.96702,-0.48422 1.29347,-0.17194 0.27443,0.26251 -0.16135,0.77665 -0.26112,1.15947 -0.65458,2.51222 -1.52147,4.96038 -2.28597,7.43408 -0.1197,0.37315 -0.57406,1.69875 -0.65505,2.22108 -0.0104,0.0685 0.11926,0.17232 0.06,0.19831 -0.30488,0.13383 -0.88116,0.54561 -0.96864,0.20035 -0.12439,-0.49116 0.46222,-0.88603 0.68077,-1.33644 0.2882,-0.59396 0.55952,-1.19746 0.83929,-1.79619 1.0886,-2.5091 2.19492,-5.03005 2.92824,-7.69641 0.40671,-1.47877 0.45228,-1.94703 0.71438,-3.44846 0.43414,-3.4858 0.48263,-7.00621 0.80512,-10.50548 0.25149,-2.62901 0.51176,-5.25768 0.67415,-7.8954 0.0553,-1.28303 0.0493,-2.55656 0.22266,-3.82871 0.23921,-1.59333 0.35812,-3.20265 0.6203,-4.79156 0.24957,-1.29859 0.5853,-2.56938 0.80146,-3.87793 0.15819,-1.31387 0.29716,-2.64483 0.22738,-3.97096 -0.13068,-1.28856 -0.23109,-2.57897 -0.27674,-3.87442 -0.0471,-1.68251 0.10142,-3.37024 0.3652,-5.02673 0.34385,-1.72104 0.81219,-3.40718 1.14777,-5.13004 0.2576,-1.3956 0.5807,-2.77532 0.80913,-4.17728 0.10639,-1.00389 0.23346,-2.00045 0.37808,-2.99869 0.0758,-0.78357 0.55623,-1.85969 0.0832,-2.58849 -0.29732,-0.0437 -2.07117,0.74587 0.61132,-0.49455 0.0838,-0.0388 -0.13052,0.1394 -0.1843,0.21933 -0.058,0.0861 -0.0993,0.18398 -0.14906,0.27597 -0.30216,0.72455 -0.30671,1.49302 -0.22734,2.26648 0.16489,1.19066 0.36865,2.37332 0.50129,3.56974 0.11354,1.45447 0.17842,2.90786 -0.0104,4.35541 -0.19668,1.47768 -0.49638,2.93508 -0.69223,4.41222 -0.17053,2.16935 -0.34062,4.33558 -0.54529,6.5024 -0.29896,3.03439 -0.68388,6.06381 -0.86629,9.10996 -0.13024,1.65292 0.45018,3.1783 0.72273,4.77089 0.44643,2.69866 -0.11032,5.40651 -0.58643,8.05258 -0.32599,1.58251 -0.81602,3.11833 -1.08713,4.71423 -0.11435,0.79415 -0.0364,1.6248 0.12761,2.40654 0.22847,0.38317 0.46173,0.74297 -1.11463,0.46745 -0.19034,-0.0333 0.15362,-0.38592 0.21568,-0.58484 0.26438,-0.84744 0.40328,-1.7373 0.56661,-2.61179 0.42518,-2.40197 0.47784,-4.85036 0.63453,-7.28272 0.1352,-2.0399 0.41438,-4.06369 0.59297,-6.09949 0.18468,-1.27533 0.0903,-2.38829 -0.16693,-3.63476 -0.81007,-2.75338 -1.41568,-5.56779 -1.905,-8.4076 -0.40875,-2.49292 -0.62543,-5.01374 -0.7226,-7.54172 -0.11077,-1.2106 0.0673,-2.37005 0.38777,-3.51984 0.33286,-0.73589 0.71835,-1.44713 1.07682,-2.17129 0.43508,-1.02921 0.69818,-2.13606 0.89486,-3.24571 0.24583,-1.13445 0.57462,-2.24007 0.769,-3.3886 0.12453,-0.83935 0.20606,-1.6814 0.0739,-2.52267 -0.12072,-0.78912 0.44092,-1.23935 0.95195,-1.67609 0.39502,-0.31288 0.20398,-0.15024 0.57355,-0.48724 0,0 1.35875,-0.60101 1.35875,-0.60101 l 0,0 c -0.36184,0.35338 -0.17212,0.18754 -0.56944,0.49713 -0.48028,0.37893 -1.09767,0.78884 -1.01889,1.51631 0.1418,0.859 0.0728,1.71622 -0.0552,2.57566 -0.18894,1.15089 -0.50998,2.25883 -0.76961,3.39037 -0.1929,1.12283 -0.45707,2.23814 -0.87273,3.28892 -0.35948,0.71662 -0.7108,1.43817 -1.08761,2.14144 -0.32197,1.1381 -0.54076,2.27438 -0.42418,3.47982 0.0859,2.52424 0.28961,5.04286 0.69327,7.53256 0.4896,2.83553 1.09024,5.6474 1.92606,8.38809 0.27993,1.29486 0.3823,2.35071 0.18852,3.68025 -0.18404,2.03672 -0.4654,4.06175 -0.60668,6.10248 -0.16347,2.43615 -0.20548,4.88878 -0.62033,7.29735 -0.16029,0.8815 -0.30218,1.7696 -0.54631,2.6297 -0.0582,0.20531 -0.0499,0.46461 -0.1967,0.60805 -1.36311,1.33139 -1.20698,1.57339 -1.52357,0.93942 -0.16264,-0.80174 -0.2531,-1.65382 -0.14677,-2.46814 0.26643,-1.60489 0.76907,-3.14392 1.11166,-4.72976 0.48086,-2.62428 1.03908,-5.31237 0.59684,-7.99117 -0.27774,-1.60622 -0.86836,-3.1432 -0.72782,-4.81255 0.18658,-3.04824 0.57132,-6.07967 0.86797,-9.11681 0.19347,-2.16601 0.36614,-4.33009 0.52501,-6.49846 0.18541,-1.47909 0.49117,-2.93443 0.68987,-4.41201 0.1987,-1.43367 0.13989,-2.87361 0.0239,-4.31567 -0.1279,-1.19702 -0.33011,-2.37913 -0.50511,-3.56779 -0.09,-0.80028 -0.0961,-1.58863 0.18485,-2.35241 0.40723,-0.90237 0.68664,-0.85523 1.77188,-1.51896 0.19422,-0.11881 0.38924,-0.0851 0.55863,0.0509 0.48096,0.79755 0.0827,1.84335 -0.038,2.6985 -0.14253,1.00043 -0.28167,1.99648 -0.38043,3.00341 -0.22657,1.40473 -0.55233,2.78556 -0.80954,4.18352 -0.33478,1.72332 -0.80348,3.40913 -1.15576,5.12816 -0.2698,1.64442 -0.41454,3.32205 -0.37361,4.99347 0.0482,1.29339 0.14106,2.58286 0.27939,3.86874 0.0839,1.33751 -0.0693,2.68035 -0.21606,4.00742 -0.21308,1.30867 -0.5322,2.5831 -0.79816,3.87692 -0.27128,1.58692 -0.39882,3.19417 -0.62663,4.78906 -0.17411,1.26902 -0.17172,2.53775 -0.22805,3.81776 -0.17509,2.64447 -0.45249,5.27881 -0.70172,7.91582 -0.32561,3.50222 -0.36648,7.02547 -0.79561,10.51527 -0.25692,1.49284 -0.30798,1.99986 -0.70968,3.46993 -0.73058,2.67363 -1.84413,5.19782 -2.92327,7.7181 -0.2748,0.59783 -0.54532,1.19801 -0.82439,1.79347 -0.21149,0.45128 -0.32042,0.98621 -0.64723,1.34663 -2.77357,3.05868 -1.45446,-0.0741 -1.0644,-1.3325 0.59918,-1.9197 1.23642,-3.82669 1.80765,-5.7566 0.16259,-0.5493 0.32143,-1.10015 0.46494,-1.65574 0.0961,-0.37204 0.0382,-0.8191 0.25361,-1.12608 0.35183,-0.50128 0.90788,-0.78371 1.36182,-1.17554 -0.4247,0.57609 -0.72512,1.35401 -1.0014,2.01795 -0.7362,1.76916 -1.31871,3.61057 -1.79781,5.48046 -1.16295,4.72653 -2.12805,9.52915 -3.83268,14.07381 -0.39245,0.94632 -1.36353,3.45207 -2.06685,4.18887 -0.54543,0.57141 -1.16462,1.06065 -1.80528,1.4992 -0.0935,0.0639 -0.24871,0.0442 -0.32942,-0.038 -0.0872,-0.0889 -0.0543,-0.25335 -0.0813,-0.38002 0.20878,-2.00746 0.78377,-3.94659 1.26838,-5.88917 0.74151,-2.42881 1.72632,-4.74423 3.00322,-6.8987 1.33159,-2.31158 2.61775,-4.64206 3.2229,-7.32671 0.89656,-3.43641 1.55084,-6.9542 2.51356,-10.36877 0.0745,-0.26411 0.18216,-0.51567 0.27323,-0.77351 0.48782,-0.33393 0.95011,-0.71697 1.46345,-1.00185 0.0546,-0.0303 0.11883,0.0507 0.15787,0.10203 0.19992,0.26362 -0.40623,0.72394 -0.44926,0.93097 -0.7172,0.9848 -1.4428,1.96753 -2.3525,2.7563 -0.55369,0.56986 -1.2272,1.09712 -1.56903,1.84912 -0.26553,1.34773 0.007,2.73754 0.17388,4.08348 0.28016,1.56494 0.60806,3.1302 1.12233,4.62571 0.35563,1.19101 0.29862,2.36784 -0.0534,3.56821 -0.85732,3.08474 -2.08104,6.01224 -3.67334,8.7342 -0.75298,1.35375 -1.51401,2.68679 -2.33168,3.99493 -0.0911,0.14578 -0.78418,1.3248 -1.02879,1.52453 -0.48067,0.39248 -1.02361,0.68504 -1.53543,1.02757 -0.69689,0.0512 -0.63818,-0.82753 -0.47301,-1.34585 0.3002,-1.13744 0.46028,-2.31099 0.81488,-3.4332 0.5284,-2.07032 1.19423,-4.1006 1.90848,-6.10231 0.66613,-1.54467 1.47452,-2.98578 2.22828,-4.47616 1.75727,-1.41619 1.5739,-1.46437 1.30477,-0.007 -0.15996,0.79876 -0.22401,1.60942 -0.39201,2.40671 -0.19797,0.88997 -0.2904,1.80302 -0.56839,2.67098 -0.25725,0.76312 -0.42394,1.56068 -0.70326,2.31703 -0.30028,0.89632 -0.50093,1.83293 -0.8631,2.7073 -0.32307,0.79449 -0.55258,1.63801 -0.97789,2.37889 -0.36847,0.6405 -0.57195,1.34551 -0.91902,1.99523 -0.36,0.58394 -0.64656,1.23306 -0.89007,1.88287 -0.2493,0.58646 -0.52038,1.15864 -0.69216,1.77944 -0.27288,0.58025 -0.54641,1.16232 -0.75936,1.77206 -0.2837,0.71279 -0.53036,1.43851 -0.8018,2.15714 -0.25454,0.53095 -0.45578,1.08435 -0.78215,1.57201 -0.33243,0.66971 -0.53883,1.40957 -0.73679,2.13689 -0.28974,1.07727 -0.46231,2.1918 -0.74257,3.27312 -0.0948,0.89404 -0.22441,1.78003 -0.10258,2.68128 0.0582,1.42016 -3e-5,2.83093 -0.28244,4.22496 -0.18519,1.31526 -0.57768,2.95351 -2.28941,2.79111 -0.55644,-0.41957 -0.31788,-1.26217 -0.35736,-1.90218 -0.003,-0.85122 -0.009,-1.70255 0.005,-2.55371 0.0292,-1.27759 0.0998,-2.55558 0.29327,-3.81787 0.24427,-1.42422 0.58143,-2.80875 1.03284,-4.17158 0.23608,-0.70062 0.39326,-1.47859 0.98378,-1.93442 1.00138,-0.66425 1.88789,-1.34961 3.06634,-1.48589 0.64766,-0.0778 1.30868,-0.0579 1.82444,0.43656 0.41119,0.59067 0.42399,1.30523 0.38284,2.02352 -0.0308,0.72962 -0.0752,1.46892 -0.35988,2.14288 -0.43898,0.95348 -0.8981,1.89291 -1.50888,2.73385 -0.27722,0.48409 -0.58133,0.95028 -0.84208,1.44511 -0.63332,1.20191 -1.05631,2.52078 -1.57713,3.78025 -0.2279,0.56701 -0.4796,1.12339 -0.68283,1.70143 -0.42047,1.19584 -0.58777,2.47097 -0.78283,3.72624 -0.16649,1.75405 -0.0598,3.50654 0.30171,5.22899 0.12746,0.56502 0.22899,1.10416 0.42636,1.6466 0.0653,0.17941 0.33348,0.35164 0.2408,0.51607 -0.24125,0.42798 -0.714,0.63534 -1.06979,0.95462 -0.0977,0.0877 0.85346,-0.69707 0.12877,-0.38985 -0.006,-0.85502 -10e-4,-1.7194 -0.15627,-2.56123 -0.17577,-0.57806 -0.46545,-0.93963 -1.00105,-1.15382 -0.14811,-0.0391 -0.2957,-0.0906 -0.45074,-0.0852 -0.0753,0.003 -0.28431,0.0866 -0.22352,0.038 2.03523,-1.62863 1.12565,-0.84652 0.82286,-0.48944 -0.23375,0.63389 -0.23417,1.30143 -0.0803,1.96043 0.29526,1.4172 0.53035,2.84458 0.83381,4.26002 0.65995,2.73842 1.42873,5.44723 2.29918,8.11481 0.66255,1.91948 1.27247,3.86483 2.08993,5.71556 0.41722,0.8899 0.87639,1.7538 1.11076,2.72936 0.28013,1.22848 0.58788,2.45129 0.92661,3.6618 0.52774,1.9696 1.2464,3.8596 1.9292,5.76968 0.31879,0.89784 0.65492,1.78709 0.95093,2.69402 0.29736,0.73181 0.57262,1.4655 1.08836,2.05463 0.42455,0.78851 0.77215,1.62813 1.30702,2.34113 0.40154,0.64302 0.60395,1.07977 0.57896,1.89635 0.0389,0.67276 0.0766,1.37427 0.44385,1.94439 0.37033,0.45126 0.77094,0.81442 1.35718,0.80841 0.61018,-0.1504 0.3314,-0.10925 -0.80812,0.63383 -0.0867,0.0566 0.17361,-0.11435 0.25392,-0.18143 0.27377,-0.22883 0.21253,-0.23093 0.46855,-0.49299 0.0855,-0.0876 0.17907,-0.16535 0.26859,-0.24801 0.51483,-0.53568 1.10311,-1.00241 1.68937,-1.43864 0.56599,-0.46208 1.12859,-0.92495 1.68105,-1.40588 0.4583,-0.38368 0.87392,-0.83061 1.3676,-1.16117 0.39781,-0.38159 0.75315,-0.81777 1.10918,-1.2439 0.42721,-0.46717 0.78079,-1.01545 1.10161,-1.57269 0.42455,-0.64123 0.84059,-1.2894 1.16878,-1.99685 0.44084,-0.75723 0.89186,-1.50495 1.29243,-2.28724 0.3413,-0.70288 0.58274,-1.46175 0.91828,-2.16871 0.34365,-0.58128 0.51929,-1.24296 0.84254,-1.83856 0.30125,-0.49211 0.59864,-0.97747 0.82269,-1.51934 0.30018,-0.47938 0.54436,-0.99968 0.91231,-1.42792 0.37816,-0.42684 0.54139,-1.02643 0.79081,-1.54579 0.25539,-0.52865 0.51546,-1.0518 0.76262,-1.58404 0.27281,-0.50326 0.5793,-0.99033 0.79699,-1.52347 0.25471,-0.69986 0.30112,-1.45928 0.32271,-2.20519 0.0959,-1.15584 0.29694,-2.29532 0.69187,-3.3787 0.36303,-0.98265 0.77602,-1.945 1.13806,-2.92673 0.54511,-0.76322 1.6546,-1.69448 2.172,-0.64844 0.27911,0.73168 0.47464,1.51096 0.53671,2.30182 0.0288,1.14351 -0.27351,2.23126 -0.74568,3.24762 -0.37835,0.79134 -0.79992,1.55522 -1.18251,2.34354 -0.13741,0.28322 -0.26216,0.57361 -0.39112,0.86153 -0.10164,0.22696 -0.12716,0.51578 -0.30068,0.6831 -0.43809,0.42242 -0.98511,0.68767 -1.47766,1.0315 0.27781,-0.56238 0.49883,-1.14434 0.69647,-1.74594 0.23729,-0.57147 0.40431,-1.17902 0.66962,-1.73807 0.30214,-0.75525 0.55065,-1.53708 0.71663,-2.34257 0.3163,-1.21409 0.69747,-2.40714 1.18375,-3.55431 0.64936,-1.75688 1.4447,-3.46519 1.83556,-5.3208 0.0919,-1.0283 -0.0773,-0.39354 1.34365,-1.40135 0.0619,-0.0439 -0.133,0.0776 -0.18119,0.13843 -0.35085,0.44245 -0.51072,1.04297 -0.80032,1.52601 -0.40553,0.74546 -1.44565,2.68446 -2.40741,1.91503 -0.33436,-1.24792 0.78016,-3.8196 0.98805,-5.06769 0.23406,-0.87489 0.5015,-1.79842 0.66579,-2.69558 0.0627,-0.34252 -0.0416,-0.74675 0.13638,-1.03718 0.32486,-0.53012 0.84041,-0.8889 1.29206,-1.29394 0.2217,-0.19882 -1.06367,1.47585 -0.33622,0.86425 -0.67522,2.60809 -1.15039,5.27258 -1.28472,7.98408 -0.0438,0.4733 -0.27184,2.97469 -0.55839,3.31319 -0.43808,0.51752 -1.02745,0.86025 -1.58574,1.21459 -0.11193,0.0711 -0.0675,-0.5464 -0.0549,-0.41942 0.16961,-0.73161 0.33264,-1.45588 0.45018,-2.2003 0.21512,-0.84554 0.38442,-1.71357 0.80543,-2.47456 0.56939,-1.09951 1.08423,-2.24621 1.94249,-3.12613 0.37473,-0.40536 0.18681,-0.25127 0.56763,-0.50842 0.32492,-0.21939 1.31261,-1.36696 1.93974,-0.89412 0.48703,0.82913 0.22214,1.95901 0.26853,2.8841 -0.13623,2.1829 -0.69837,4.03282 -1.76985,5.90694 -0.68313,1.27404 -0.81479,1.54194 -1.52514,2.77986 -0.18831,0.32816 -0.31139,0.71904 -0.57663,0.97641 -0.47508,0.46097 -1.06442,0.7594 -1.59919,1.13479 -0.0117,0.008 0.0186,-0.0212 0.028,-0.0317 0.0455,-0.0663 0.0911,-0.13285 0.13667,-0.19925 0.32454,-0.72251 0.53101,-1.50367 0.79096,-2.25503 0.31896,-0.74368 0.47404,-1.53528 0.70763,-2.31238 0.24923,-0.77464 0.47145,-1.56745 0.61953,-2.37247 0.0471,-0.80917 0.11308,-1.62186 0.30686,-2.40766 0.14993,-0.77768 0.11853,-1.58806 0.28423,-2.36616 0.11707,-0.79901 0.10905,-1.59114 0.0132,-2.39521 -0.0897,-0.80674 -0.27368,-1.60501 -0.27397,-2.41901 -4.9e-4,-0.83668 -0.001,-1.67346 0.0147,-2.50997 0.0273,-1.06662 0.0789,-2.13268 0.1906,-3.19326 0.0991,-0.9464 0.22823,-1.88506 0.16318,-2.84118 -0.0159,-1.11823 -0.0494,-2.23648 -0.13683,-3.35117 -0.0827,-1.00505 -0.25424,-2.00303 -0.22785,-3.01367 0.001,-0.80655 0.003,-1.61311 0.003,-2.41968 -0.003,-0.84138 -0.006,-1.68415 -0.0758,-2.52283 -0.0923,-0.93413 -0.2616,-1.84815 -0.50235,-2.75079 -0.15095,-1.09098 -0.31582,-2.17691 -0.41243,-3.27612 -0.28862,-2.40795 -0.4275,-4.8253 -0.54002,-7.25035 -0.0222,-0.40222 -0.0515,-0.80405 -0.0665,-1.20669 -0.0104,-0.2775 -0.14832,-0.60031 -0.009,-0.83314 1.10878,-1.85858 1.30486,-1.60207 1.72394,-0.4367 0.42399,1.45257 0.76117,2.93541 1.17334,4.39256 0.14413,0.75926 0.17704,1.54563 0.44018,2.27615 0.19578,0.65134 0.37985,1.31784 0.50494,1.98775 0.15602,0.95684 0.21674,1.90638 0.17282,2.88022 0.009,1.11598 0.0193,2.2331 0.10154,3.34619 0.0966,1.26628 0.26956,2.53082 0.26808,3.80209 -0.0149,1.09589 -0.0147,2.20252 -0.20507,3.28265 -0.17087,0.79826 -0.45825,1.52042 -0.75598,2.26844 -0.13302,0.50594 -0.30174,0.91153 -0.54705,1.35906 -0.047,0.0858 -0.0502,0.20852 -0.12424,0.26745 -0.44868,0.3571 -0.94397,0.63893 -1.41596,0.9584 -0.47832,-0.35017 -0.45984,-1.14153 -0.47087,-1.69852 -2.1e-4,-0.79472 10e-4,-1.58976 -0.0252,-2.38408 -0.032,-0.72002 -0.084,-1.44024 -0.23601,-2.14404 -0.14165,-0.76705 -0.12014,-1.53564 -0.11123,-2.316 -1.8e-4,-0.80489 -4.5e-4,-1.60975 -10e-4,-2.41464 -9.2e-4,-0.80835 -0.003,-1.61672 10e-4,-2.42506 0.007,-0.86033 0.021,-1.72164 0.0966,-2.57871 0.0855,-0.88732 0.24949,-1.76525 0.29541,-2.65462 0.0341,-0.81293 0.0938,-1.62486 0.23672,-2.42498 0.12482,-0.79901 0.12936,-1.5949 0.11043,-2.40491 0,-0.80564 10e-6,-1.61128 -2e-4,-2.41691 -2.7e-4,-0.80593 -7.2e-4,-1.61185 -10e-4,-2.41778 -0.001,-0.80161 -0.003,-1.60326 0.005,-2.40484 0.0132,-0.76775 0.0288,-1.53815 0.13857,-2.29825 0.13887,-0.87626 0.33974,-1.73854 0.32627,-2.63582 0.0799,-1.04514 0.22486,-2.08404 0.28103,-3.12918 0.0295,-0.92872 0.0913,-1.8567 0.25356,-2.77078 0.21216,-1.25193 0.41268,-2.50182 0.48559,-3.77506 0.0161,-0.83834 0.0196,-1.68457 0.19216,-2.50641 0.15142,-0.65449 0.30167,-1.30185 0.4271,-1.96226 0.2121,-0.62791 0.48624,-1.22563 0.62428,-1.88334 0.11677,-0.75997 0.30567,-1.50359 0.36929,-2.27251 0.12906,-0.74283 0.34216,-1.46522 0.36372,-2.22698 0.102,-0.76773 0.27883,-1.52285 0.26854,-2.30299 0.0505,-0.68549 0.12921,-1.37062 0.37591,-2.01054 0.20738,-0.62031 0.31978,-1.29585 0.42728,-1.94287 0.11123,-0.73463 0.35341,-1.42395 0.47643,-2.1537 0.20969,-1.11186 0.40844,-2.22383 0.61861,-3.33546 0.4378,-1.9223 0.83818,-3.85635 1.46235,-5.72047 0.0132,-0.0353 0.50693,-1.40215 0.55898,-1.45698 1.24087,-1.30739 1.87498,-1.70849 1.44851,-0.29076 -0.38543,1.77094 -0.76556,3.54246 -1.12335,5.31952 -0.40391,1.45715 -0.85653,2.90872 -1.15041,4.39487 0.009,0.13111 0.0132,0.26287 0.0275,0.39342 0.0117,0.10892 0.12248,0.24472 0.053,0.32391 -2.05754,2.34021 -1.17114,1.06451 -0.92096,0.46833 0.24407,-0.53576 0.42385,-1.0973 0.76186,-1.57888 0.003,-0.004 0.2857,-0.48227 0.28847,-0.48872 0.18737,-0.43813 0.14723,-0.95842 0.34301,-1.39642 0.33442,-1.01128 0.57233,-2.05838 0.77353,-3.11039 0.40878,-1.95745 0.79947,-3.92374 1.31429,-5.85097 0,0 1.32244,-0.68225 1.32244,-0.68225 z"
       inkscape:connector-curvature="0" />
    <path
       style="fill:#000000"
       id="path3496"
       d="m 413.75911,720.33964 c 1.98605,0.0674 3.96075,-0.22329 5.89901,-0.67029 1.66355,-0.42069 3.27308,-1.03489 4.83203,-1.78413 0.34431,-0.2368 2.0719,-1.18146 0.10073,-0.0353 -0.14589,0.0848 0.28312,-0.18664 0.42529,-0.27886 0.15723,-0.10214 0.31378,-0.20541 0.47291,-0.30389 0.57675,-0.35697 1.15639,-0.70831 1.7346,-1.06246 -0.27311,0.16803 -1.0935,0.66993 -0.8193,0.50406 0.56602,-0.34235 1.12246,-0.70379 1.69473,-1.03359 0.536,-0.3089 1.14013,-0.50737 1.69404,-0.77781 -0.26929,0.16087 1.02964,-0.61393 0.77956,-0.44642 -0.31529,0.21119 -1.29355,0.78362 -0.96359,0.60101 0.49926,-0.27629 0.97912,-0.59241 1.47184,-0.88229 0.0322,-0.0189 0.13375,-0.0643 0.10235,-0.0437 -0.52827,0.34575 -1.06276,0.68009 -1.59413,1.02013 -2.11538,0.33733 -4.2378,0.74885 -6.30433,1.35515 -1.68464,0.49426 -2.3266,0.79868 -3.94966,1.45379 -2.37407,1.00971 -4.16592,1.91902 -5.92283,3.27561 0.10188,0.003 -0.82324,0.69328 -0.64819,0.8017 0.17526,0.10848 1.54767,-0.2659 1.59137,-0.27723 1.45477,-0.39131 2.93811,-0.67921 4.35117,-1.23736 0.74494,-0.29422 1.29841,-0.59246 2.015,-0.95307 1.63185,-0.82064 3.23628,-1.71897 4.92222,-2.40279 0.90994,-0.44643 1.91207,-0.66383 2.76935,-1.22998 -0.3669,0.21806 -0.72737,0.44949 -1.1007,0.6542 -0.0218,0.0127 0.0515,-0.05 0.0352,-0.0701 -0.0214,-0.0263 -0.0643,-0.007 -0.0967,-0.007 -0.11881,0.003 -0.2376,0.008 -0.35619,0.016 -1.06735,0.0742 -1.08646,0.0912 -2.293,0.22655 -2.81641,0.3762 -5.61974,0.86648 -8.38396,1.5675 0.69819,-0.44405 -1.14654,0.45359 -0.87333,0.30429 0.54362,-0.29707 1.06716,-0.65177 1.64353,-0.86319 0.26616,-0.0976 0.56162,-0.021 0.84135,-0.0483 0.96833,-0.0941 1.53761,-0.20985 2.51891,-0.37566 2.73479,-0.57242 5.42248,-1.40509 8.04763,-2.41372 1.06941,-0.35786 2.01346,-1.02868 3.0954,-1.3419 0.29416,-0.11165 0.57461,-0.24801 0.85614,-0.39101 0.0971,-0.0493 0.38539,-0.20239 0.29415,-0.14115 -0.32461,0.21778 -0.66278,0.41061 -0.99612,0.61215 -0.0884,0.0534 0.17421,-0.11196 0.26132,-0.16787 0.0621,-0.0456 0.12424,-0.0914 0.18638,-0.13701 0.0132,-0.007 0.0462,-0.0332 0.0378,-0.0209 -0.0431,0.0614 -0.0785,0.13971 -0.14326,0.17127 -0.66395,0.32412 -1.39932,0.43652 -2.08877,0.68958 -0.66915,0.2456 -1.32761,0.5245 -1.9914,0.78675 -4.36596,1.91737 -8.70495,3.91026 -13.04268,5.90309 -0.9357,0.50284 -1.92102,0.87854 -2.87848,1.32544 -0.11343,0.053 -0.22222,0.11739 -0.33544,0.17089 -0.0367,0.0174 -0.14724,0.066 -0.11401,0.0418 0.49207,-0.35901 0.99565,-0.69887 1.49349,-1.04832 1.17755,-0.2454 2.38282,-0.38024 3.54899,-0.68983 0.10188,-0.0269 1.7917,-0.58102 1.89684,-0.61539 1.82924,-0.8342 3.7862,-1.19719 5.71167,-1.65971 3.29738,-0.65156 6.56683,-1.43397 9.76783,-2.51879 1.90023,-0.7693 3.84178,-1.4037 5.75964,-2.11322 0.7214,-0.24746 2.83108,-0.93191 -0.46394,0.56773 -0.18123,0.0824 -0.39193,0.0282 -0.58802,0.0404 -0.34487,0.0212 -0.68987,0.0397 -1.03479,0.0594 -1.53342,0.18406 -3.10641,0.0521 -4.63335,0.30768 0.51605,-0.28992 0.99834,-0.66655 1.54817,-0.86977 0.18954,-0.0701 0.39724,0.0539 0.59625,0.0772 0.23113,0.0269 0.46251,0.0517 0.6941,0.0736 0.71677,0.0674 1.43473,0.10881 2.15317,0.14689 0.93848,0.12233 1.58532,0.17887 1.73943,1.30184 -0.0152,0.68497 -0.29986,1.28836 -0.53428,1.90581 0,0 -1.33286,0.67139 -1.33286,0.67139 l 0,0 c 0.21716,-0.60327 0.51386,-1.1719 0.56779,-1.83214 -0.10765,-1.05531 -0.78024,-0.99781 -1.62235,-1.12062 -0.25282,-0.0143 -3.48051,-0.21952 -3.46229,-0.30702 0.0917,-0.44061 0.55565,-0.67067 0.83348,-1.00601 1.53471,-0.14976 3.08035,-0.14784 4.61625,-0.28105 0.34896,-0.0228 0.69777,-0.0482 1.04686,-0.0684 0.20192,-0.0112 0.65193,-0.24204 0.60611,-0.0275 -0.21945,1.02841 -1.17653,1.09979 -1.87721,1.33228 -1.91884,0.69034 -3.84508,1.35347 -5.7477,2.09831 -3.20692,1.06543 -6.4785,1.83596 -9.77282,2.50701 -1.9281,0.46645 -3.87837,0.86019 -5.71576,1.67753 -0.33698,0.10958 -1.56526,0.51471 -1.90417,0.60184 -1.17525,0.30219 -2.38404,0.44529 -3.56701,0.70547 0.27928,-0.3023 0.54966,-0.61469 0.83783,-0.9069 0.11505,-0.1166 0.28745,-0.13844 0.43254,-0.20418 0.95048,-0.43039 1.91711,-0.81908 2.84752,-1.30156 4.33855,-1.98357 8.6748,-3.97613 13.03924,-5.89026 2.08858,-0.82418 1.61253,-0.67748 3.46128,-1.27843 0.369,-0.11994 0.65313,-0.3493 0.99292,-0.097 0.0841,0.0624 -0.23119,0.38289 -0.19453,0.25636 -0.9556,0.60653 -1.88323,1.28111 -2.94803,1.63669 -1.06183,0.34293 -2.00904,0.99043 -3.07234,1.33478 -2.63175,0.98803 -5.31728,1.82403 -8.05495,2.38386 -0.88478,0.14817 -1.65435,0.29758 -2.54221,0.37263 -0.28908,0.0244 -0.82026,0.34047 -0.86942,0.029 -0.15086,-0.95543 1.07548,-1.16534 1.5805,-1.31303 2.76672,-0.6764 5.56793,-1.16305 8.38159,-1.54178 0.49399,-0.0566 1.74474,-0.21818 2.33126,-0.22994 0.29164,-0.007 0.81634,0.20305 0.59009,0.38582 -0.44324,0.35811 -0.93407,0.64033 -1.40111,0.9605 -0.87799,0.51759 -1.86261,0.76829 -2.77535,1.20262 -1.6757,0.69682 -3.27844,1.58371 -4.90552,2.40231 -0.75739,0.37481 -1.2365,0.63294 -2.02501,0.93692 -1.42021,0.54749 -2.90737,0.83401 -4.3647,1.23202 -0.21232,0.0495 -2.5132,0.65946 -1.54686,-0.49485 0.1235,-0.14754 0.27051,-0.26953 0.40578,-0.40428 2.56611,-2.02319 5.44881,-3.53923 8.3857,-4.80481 3.36654,-1.34188 6.75576,-2.31688 10.31802,-2.81275 -0.24682,0.30829 -0.48302,0.62709 -0.74046,0.92489 -0.024,0.0278 -0.12688,0.0639 -0.097,0.044 0.34764,-0.23352 1.41287,-0.89233 1.0515,-0.68506 -0.78578,0.45071 -1.52614,0.99904 -2.33305,1.40908 -0.41587,0.19637 -0.83602,0.37985 -1.25161,0.57696 -0.14516,0.0689 -0.55873,0.31563 -0.43546,0.20723 0.16102,-0.14163 3.55437,-2.27469 -0.87334,0.52958 0.25557,-0.16864 0.51462,-0.33114 0.76666,-0.50595 0.15384,-0.10672 -0.31521,0.19991 -0.47193,0.30154 -0.99855,0.64757 -1.99129,1.30862 -3.03203,1.87384 -1.55875,0.74633 -3.17921,1.32867 -4.83932,1.74843 -1.9533,0.43617 -3.94366,0.72336 -5.94221,0.64498 0,0 1.19263,-0.92477 1.19263,-0.92477 z"
       inkscape:connector-curvature="0" />
    <path
       style="fill:#000000"
       d="m 432.06553,707.97045 c -1.37864,0.19745 -2.04916,1.76979 -2.48081,3.0839 -0.26735,0.99694 -0.58642,2.11 -0.12861,3.09014 0.42642,0.58978 0.57172,1.24135 0.64591,1.97183 0.13234,1.57925 -0.18755,3.14551 -0.45442,4.68817 l 1.2947,-0.68531 c 0.2722,-1.56012 0.59067,-3.14676 0.45444,-4.74423 -0.0783,-0.74665 -0.23053,-1.41861 -0.66594,-2.02168 -0.4375,-0.93272 -0.0722,-2.03241 0.17435,-2.97176 0.1764,-0.51401 0.27467,-0.87071 0.53159,-1.34571 0.0208,-0.0384 0.0754,-0.0903 0.11719,-0.13707 1.82178,0.94802 2.47987,3.50442 3.3954,5.26757 0.60956,1.43617 1.19433,2.88674 1.82061,4.31434 0.27254,0.62127 1.2302,2.79561 1.72626,3.47018 0.15353,0.20879 0.36063,0.51707 0.6002,0.46726 0.27335,3.34044 0.77778,6.65614 1.30043,9.96195 0.98318,6.98666 2.20578,14.04576 1.74056,21.1419 l 1.29757,-0.69778 c 0.33778,-7.1024 -0.86678,-14.14865 -1.82345,-21.14501 -0.51064,-3.31565 -1.00552,-6.6411 -1.26041,-9.98999 0.11354,-0.0847 0.22515,-0.17684 0.34298,-0.2492 0.50276,-1.43148 0.03,-3.04291 -0.12863,-4.50749 -0.0397,-0.14466 0.0186,-0.43617 -0.12004,-0.43298 -0.0523,0.001 -0.11984,0.0165 -0.1772,0.0187 0.003,-0.0163 0.003,-0.0339 0.008,-0.0498 -0.0343,0.0255 -0.0534,0.0361 -0.0857,0.0592 -0.50487,0.0238 -1.11467,0.0919 -1.21755,0.56694 -0.0855,0.39494 -0.068,0.73517 -0.0686,1.14946 0,0.36047 0.006,0.72357 0.008,1.08403 0.005,0.13431 0.0177,0.26764 0.0229,0.40186 -1.04125,-2.03521 -1.86914,-4.20247 -2.7609,-6.31735 -0.92844,-1.8727 -1.60321,-4.39829 -3.47255,-5.43889 -0.22725,-0.0326 -0.44041,-0.0313 -0.63736,-0.003 z m 8.21126,8.49787 c 0.0507,-0.0377 0.0737,-0.0407 0.12861,-0.0841 0.0307,-0.0243 -0.0974,-0.0274 -0.11435,0.01 -0.0104,0.0228 -0.007,0.0508 -0.0143,0.0748 z"
       id="path3498"
       inkscape:connector-curvature="0" />
    <path
       style="fill:#000000"
       id="path3502"
       d="m 426.38291,850.25438 c -1.39936,2.58237 -2.44134,5.35733 -3.52009,8.10703 -0.25616,0.66057 -0.53243,1.31247 -0.68457,2.01292 -0.0218,0.10049 -0.15743,0.50882 0.048,0.49295 0.0697,-0.0164 0.14077,-0.0269 0.20917,-0.0492 0.23588,-0.0767 0.89678,-0.43694 0.68537,-0.29956 -1.73566,1.12784 -0.55302,0.18394 -0.18977,-0.21303 0.97238,-1.32784 1.65998,-2.88522 2.33378,-4.41066 0.25724,-0.73356 0.15483,-1.20707 1.32611,-1.13444 0.19122,0.0112 -0.24039,0.32507 -0.35716,0.4905 -0.16182,0.22927 -0.319,0.46235 -0.4785,0.69353 -0.86427,1.09441 -1.62218,2.31069 -2.62755,3.26391 0.0165,0.21575 -0.0861,-0.0128 -0.0815,0.0172 0.003,0.0233 0.0196,0.0421 0.0294,0.0632 0.0183,0.0496 0.0467,0.096 0.0548,0.14864 0.0615,0.40191 -0.0258,0.51743 -0.12717,0.97482 -1.54828,4.08431 -3.55636,7.95873 -5.70374,11.70179 -1.03371,1.64708 -1.8778,3.44879 -3.05577,4.98471 -1.20461,1.43008 -2.28008,2.96703 -3.3328,4.53153 -1.41064,2.08208 -2.97208,4.03881 -4.64985,5.86916 0.1473,-0.63702 -0.59038,0.83687 -0.60236,0.55138 -0.0268,-0.63685 1.28593,-0.5601 1.6016,-0.58574 1.09294,0.0128 2.17168,-0.15646 3.25454,-0.2911 0.37603,-0.0328 0.76962,-0.0893 1.12708,-0.2316 0.0941,-0.0374 0.35686,-0.19869 0.26987,-0.14449 -1.15416,0.71968 -1.35036,0.99678 -1.02085,0.56726 -0.499,-0.34535 -1.45718,-0.10542 -1.98484,-0.0721 -1.43977,0.0625 -2.8962,0.31594 -4.32323,10e-4 -0.76002,-0.35629 -0.71388,-1.30517 -0.71898,-2.07838 -0.16914,-1.5539 -0.50925,-3.09406 -0.86577,-4.61031 -0.7258,-3.0005 -1.81484,-5.88108 -3.02575,-8.68322 -1.20347,-2.52031 -2.46737,-4.99997 -3.55994,-7.58184 -0.98843,-2.23284 -1.74402,-4.55842 -2.23217,-6.97726 -0.37819,-2.11198 -0.52464,-4.26092 -0.58407,-6.40831 0.0268,-1.54019 -0.0844,-3.06221 -0.41593,-4.55964 -0.52474,-1.72834 -0.90467,-3.5455 -1.71862,-5.14844 -0.0604,-0.0821 -0.23263,-0.39424 -0.39618,-0.40913 -0.0433,-0.003 -0.14893,0.0956 -0.10812,0.0794 0.37806,-0.14927 0.72369,-0.42882 1.12305,-0.48006 0.10488,-0.0128 -0.0589,0.22756 -0.0457,0.34182 0.0159,0.13908 0.0869,0.26377 0.13052,0.39565 0.73773,1.07124 1.68473,1.94286 2.50029,2.93931 0.60066,0.73391 0.97263,1.30588 1.51786,2.09346 1.61253,2.47299 2.48086,5.38301 3.13035,8.30278 0.10789,1.14158 0.6547,2.70278 0.22491,3.82749 -0.53505,0.17708 -1.0471,0.5698 -1.60514,0.53122 -0.23927,-0.0166 -0.26545,-0.4364 -0.3762,-0.66817 -1.04204,-2.18092 -1.4795,-4.64739 -2.0198,-7.01216 -0.65038,-2.9205 -1.44465,-5.79959 -2.15657,-8.70186 -0.23666,-1.08906 -0.46767,-2.21122 -0.41554,-3.3395 0.0455,-0.98444 0.18479,-1.54368 0.36358,-2.53779 0.84818,-4.42594 2.16894,-8.71735 3.67474,-12.92294 1.26319,-3.34084 2.49766,-6.70696 3.24398,-10.23806 0.17425,-0.82432 0.30336,-1.65922 0.45504,-2.48882 0.61875,-3.76102 0.89643,-7.57121 1.01747,-11.38547 0.007,-0.36107 0.007,-0.72235 0.0211,-1.08321 0.003,-0.081 0.0684,-1.64744 0.20215,-1.73467 1.45475,-0.94787 1.26724,-1.17041 1.56275,-0.39313 0.0917,1.45427 -1.01556,2.92912 -1.72225,4.07154 -0.85662,1.25579 -1.73317,2.50341 -2.22598,3.98564 -0.25613,0.83152 -0.21065,1.71135 -0.2922,2.57048 -0.30195,1.44288 -0.73921,2.84662 -1.1014,4.27363 -0.39599,0.96211 -0.38023,2.27196 -0.90978,3.16731 -0.4258,0.12041 -0.84148,0.42532 -1.2774,0.36111 -0.16994,-0.0251 0.11389,-0.3535 0.18931,-0.52136 0.15383,-0.34231 0.33092,-0.67164 0.49744,-1.00683 0.75387,-1.51736 1.50242,-3.03508 2.22917,-4.56819 0.31523,-0.95389 1.76466,-3.62024 1.53972,-4.69139 -0.43458,0.24123 0.75164,-0.4212 1.02626,-0.34502 0.1979,0.0548 -0.18759,0.39576 -0.26877,0.59999 -0.11354,0.28566 -0.2173,0.57603 -0.31503,0.86856 -0.25751,0.77086 -0.63597,2.06652 -0.85658,2.80593 -1.01548,3.22715 -1.90152,6.5007 -2.52871,9.84404 -0.3201,1.54729 -0.57334,3.1093 -0.69898,4.68981 -0.0401,0.63348 -0.0596,1.269 -0.0512,1.9039 -0.43655,0.14738 -0.85268,0.44709 -1.30968,0.44221 -0.13945,-10e-4 0.003,-0.30408 0.005,-0.45613 10e-4,-0.21001 0.003,-0.42005 0.005,-0.63008 0.009,-1.32537 0.0117,-2.65071 0.0147,-3.97612 -0.19398,-4.30004 0.67223,-8.48318 1.83802,-12.55917 0.93725,-2.86377 2.14404,-5.60583 3.50093,-8.25748 0.46424,-0.85577 0.82374,-1.57068 2.01763,-1.3393 0.17115,0.0332 -0.0892,0.36654 -0.14414,0.54628 -0.0624,0.20406 -0.13843,0.40285 -0.20768,0.60429 -0.20195,0.94396 -0.91536,1.7497 -0.94405,2.73645 -0.25961,0.38899 1.16384,-0.25609 0.84473,-0.15214 -0.25053,0.0817 -0.6263,0.55963 -0.73447,0.30018 -0.12204,-0.29279 0.38234,-0.49248 0.54131,-0.76344 0.19882,-0.33884 0.35246,-0.70679 0.52866,-1.06017 1.72358,-3.94495 2.82772,-8.16073 3.7425,-12.40106 0.53571,-2.91394 1.10302,-5.85274 1.07729,-8.83703 -0.0619,-0.94869 -0.0493,-1.90843 0.098,-2.84691 0.85781,-2.52631 1.55261,-5.11311 2.22356,-7.70578 0.77752,-3.22571 1.77734,-6.38936 2.39122,-9.65949 0.12731,-0.86006 0.22789,-2.01321 -0.80533,-2.05939 -0.38563,0.13239 -1.40587,0.50387 0.74595,-0.5122 0.0881,-0.0416 -0.14575,0.13845 -0.20472,0.22116 -0.18115,0.25411 -0.30843,0.58678 -0.43839,0.87362 -0.41665,1.64576 -0.35605,3.43596 -0.32278,5.13226 0.12701,2.97652 0.60377,5.91472 1.00023,8.85763 0.24066,1.90163 0.42761,3.82346 0.37614,5.74504 -0.28352,2.10549 -1.11913,4.0396 -1.93095,5.95154 -0.88335,2.13098 -1.77252,4.26251 -2.53404,6.44956 -0.81826,2.16786 -1.13231,4.49615 -1.59367,6.77162 -0.10165,0.5165 -0.3397,1.6407 -0.39679,2.21282 -0.0213,0.21302 -0.0646,0.43771 -0.007,0.6428 0.0222,0.0803 0.28389,0.0643 0.21307,0.0973 -0.24024,0.11179 -0.51305,0.10782 -0.76959,0.16181 0,0 1.34288,-0.60758 1.34288,-0.60758 l 0,0 c -0.60282,0.43726 -1.15305,0.97621 -1.80845,1.3118 -0.80199,0.41065 0.26606,-3.25993 0.1314,-3.13823 0.46635,-2.2764 0.76091,-4.61252 1.57205,-6.78536 0.75888,-2.19527 1.66672,-4.32533 2.5435,-6.46661 0.80134,-1.89627 1.63063,-3.80647 1.93998,-5.88666 0.0691,-1.91467 -0.12379,-3.83088 -0.35127,-5.72739 -0.38767,-2.95006 -0.85791,-5.89331 -1.01015,-8.87321 -0.0426,-1.71738 -0.0879,-3.50719 0.26941,-5.18717 0.47884,-1.12011 1.09448,-2.05538 2.43116,-2.17045 1.0735,0.20877 1.06791,1.30125 0.90969,2.29835 -0.62526,3.27581 -1.63948,6.44284 -2.40742,9.68007 -0.66011,2.58079 -1.33141,5.16197 -2.19126,7.67244 -0.16362,0.9276 -0.17476,1.88616 -0.1222,2.82673 0.0193,3.00472 -0.56312,5.95962 -1.10435,8.89306 -0.90961,4.24273 -2.00897,8.45633 -3.69398,12.42058 -0.89946,1.89142 -0.88141,1.91025 -2.80257,3.14991 -0.36399,0.23487 -0.73148,0.24353 -1.00305,-0.10257 -0.024,-1.01576 0.71161,-1.83642 0.93129,-2.79377 0.0695,-0.19827 0.14194,-0.39541 0.20867,-0.59481 0.0554,-0.16557 0.0389,-0.38077 0.15805,-0.49992 0.39858,-0.39849 0.89807,-0.65744 1.33978,-0.99764 0.0526,-0.0405 -0.12395,0.0498 -0.17106,0.0974 -0.19946,0.20269 -0.4291,0.65227 -0.55337,0.86838 -1.37199,2.64844 -2.60557,5.38119 -3.5527,8.24783 -1.18717,4.10054 -2.03183,8.17455 -1.83502,12.50525 0.001,1.32104 0.006,2.642 0.0104,3.963 4.1e-4,0.12217 0.001,1.082 0.001,1.08215 -0.37489,0.41997 -0.87651,0.67874 -1.31475,1.01813 0.007,-0.6428 0.0147,-1.28609 0.0576,-1.92747 0.12555,-1.58999 0.38139,-3.16149 0.71009,-4.71638 0.63693,-3.34801 1.52799,-6.62698 2.53291,-9.86501 0.15447,-0.52799 1.49849,-6.49901 3.00129,-5.35713 0.28394,1.11311 -1.20069,3.82262 -1.53695,4.81804 -0.72196,1.52922 -1.46034,3.04733 -2.20868,4.56141 -0.16214,0.32806 -0.33558,0.64971 -0.48821,0.98314 -0.0739,0.16126 -0.0625,0.3851 -0.1904,0.49926 -0.42666,0.38065 -0.94352,0.62219 -1.41527,0.93329 0.37227,-0.16393 0.77553,-2.6309 0.96426,-3.09078 0.36041,-1.4185 0.77948,-2.81694 1.10149,-4.24538 0.0938,-0.86825 0.0311,-1.75937 0.27978,-2.60459 0.47543,-1.5059 1.35059,-2.77111 2.22658,-4.03046 0.69061,-1.10512 1.75432,-2.52638 1.76091,-3.92299 -0.18535,-0.63263 -0.16353,-0.3548 1.05326,-1.06186 0.0876,-0.0509 -0.0925,0.19361 -0.11504,0.29881 -0.1722,0.80854 -0.0999,1.67078 -0.15472,2.48878 -0.13755,3.82743 -0.4222,7.64984 -1.04026,11.42497 -0.14851,0.8315 -0.27401,1.66831 -0.44556,2.49452 -0.73473,3.53825 -1.96073,6.91328 -3.23533,10.25341 -1.51485,4.1879 -2.83581,8.46768 -3.66271,12.88583 -0.17372,0.96374 -0.31509,1.54422 -0.36314,2.50029 -0.056,1.11658 0.16965,2.22728 0.39747,3.30686 0.7005,2.90984 1.46942,5.80071 2.12273,8.72433 0.45258,1.96896 0.85116,3.97035 1.55922,5.85535 0.14005,0.3727 0.30454,0.73451 0.47875,1.08968 0.10315,0.21034 0.43759,0.38445 0.35205,0.60401 -0.173,0.44406 -0.64776,0.65765 -0.97164,0.9865 0.50966,-0.77375 -0.0728,-2.86581 -0.15227,-3.7364 -0.62581,-2.90661 -1.48037,-5.79968 -3.09596,-8.24944 -0.55128,-0.79271 -0.90556,-1.33764 -1.51294,-2.07443 -0.83289,-1.01031 -1.79839,-1.8938 -2.54958,-2.98305 -0.0405,-0.11324 -0.30688,-0.6598 -0.13756,-0.8444 0.98342,-1.07188 1.31297,-1.63999 1.98047,-0.65126 0.80665,1.62284 1.19003,3.45078 1.72842,5.18972 0.34498,1.50539 0.46973,3.03625 0.43234,4.58815 0.0541,2.14055 0.18212,4.28381 0.55812,6.38983 0.48434,2.40849 1.24077,4.72098 2.22013,6.94593 1.08872,2.58367 2.34644,5.06655 3.54744,7.58802 1.21275,2.81066 2.31024,5.69528 3.0565,8.69834 0.36184,1.52637 0.70486,3.0749 0.89858,4.63609 -4.5e-4,0.689 -0.0941,1.6002 0.61277,1.89134 1.42108,0.27721 2.86418,0.0397 4.29404,-0.0278 0.59929,-0.0388 1.75794,-0.34445 2.15636,0.34506 -0.23515,0.91831 -2.04437,1.34021 -2.89158,1.42588 -1.0829,0.13541 -2.1634,0.28022 -3.25541,0.2858 -0.36129,0.0367 -0.63318,0.0491 -0.98381,0.13923 -0.12834,0.0331 -0.2466,0.11276 -0.37772,0.12839 -0.14238,0.017 -0.32906,0.0799 -0.42869,-0.0324 -0.18474,-0.20799 1.11028,-0.30564 0.62262,-0.54197 1.69513,-1.81652 3.26128,-3.77489 4.67887,-5.85548 1.04299,-1.56223 2.09629,-3.10816 3.29976,-4.5291 1.2137,-1.51747 2.05752,-3.33709 3.10707,-4.98405 2.1546,-3.71253 4.15472,-7.56812 5.68338,-11.63834 0.0789,-0.31221 0.19197,-0.56117 0.15661,-0.87751 -0.0132,-0.11419 -0.1533,-0.24364 -0.14108,-0.35917 0.003,-0.0286 0.04,-0.0374 0.06,-0.0563 1.07531,-0.85517 1.76311,-2.18752 2.65913,-3.2339 0.15683,-0.23121 0.31203,-0.46378 0.47053,-0.69366 0.11413,-0.16546 0.19255,-0.37215 0.34714,-0.49233 1.75572,-1.3648 1.71896,-1.32954 1.35321,-0.14721 -0.68599,1.52999 -1.3723,3.08942 -2.31004,4.45666 -0.88105,0.97312 -1.98391,2.03816 -3.28618,2.05823 -0.0503,-0.0421 -0.11824,-0.067 -0.15067,-0.12631 -0.24702,-0.45122 0.5686,-2.19149 0.70423,-2.60805 1.09666,-2.74259 2.13703,-5.51661 3.49726,-8.12346 0,0 1.33572,-0.64066 1.33572,-0.64066 z"
       inkscape:connector-curvature="0" />
    <path
       style="fill:#000000"
       id="path3504"
       d="m 424.70723,832.60855 c 1.17749,3.132 2.05145,6.37736 2.5286,9.72058 0.3208,2.91796 -0.41252,5.77035 -0.99279,8.59147 -0.42571,1.55191 -0.7036,3.13792 -0.99404,4.72283 -0.18868,1.11065 -0.35647,2.22656 -0.60203,3.32481 -1.09656,2.66787 -1.84014,-0.30464 -1.99192,-0.87032 -0.13419,-0.81247 0.2629,-1.09372 -0.61345,-1.18063 -2.39192,-0.15966 -4.56859,0.71182 -6.75886,1.63894 -3.26174,1.61065 -6.30917,3.66904 -9.45118,5.52786 -1.15911,0.70012 -2.37543,1.2225 -3.69774,1.35146 -1.87136,-0.016 -2.90739,-1.77009 -3.87686,-3.2794 -1.32538,-2.4478 -2.73775,-4.81816 -4.35859,-7.04543 -0.8772,-1.14301 -1.69359,-2.29358 -1.87955,-3.7971 0.003,-1.0914 0.29744,-2.10618 0.66472,-3.10634 0.31454,-0.80661 0.62648,-1.66566 0.14654,-2.45645 -0.4457,-0.42493 -1.03918,-0.5036 -1.58229,-0.29033 0.33731,-0.20206 0.66021,-0.43582 1.01194,-0.6062 0.0893,-0.0432 -0.15052,0.13732 -0.21286,0.21912 -0.28328,0.37194 -0.35276,0.85812 -0.42001,1.31823 -0.19724,1.22086 0.16809,1.83345 0.86499,2.76923 0.56189,0.85602 1.31809,1.57459 1.84368,2.45813 0.10604,0.65572 0.16955,0.80934 -1.53743,0.63199 -0.28898,-0.03 -0.38264,-0.47656 -0.55833,-0.72843 -0.95272,-1.36583 -1.65734,-2.82791 -2.35975,-4.35772 -1.39446,-3.334 -1.60437,-6.98094 -1.36263,-10.58496 0.14458,-0.79995 0.23144,-1.96583 0.95268,-2.46607 1.47185,-1.02085 1.01831,-0.92027 1.90959,-1.02465 0.29662,0.081 0.43498,0.066 0.64159,0.37915 0.73654,1.11656 0.87002,3.40753 1.02695,4.73134 0.20881,3.40344 0.10766,6.81981 0.0612,10.22788 -0.0941,2.04755 0.3677,3.9698 1.03425,5.85789 0.88055,2.36046 1.51071,4.81515 2.22922,7.23641 1.08275,3.00984 1.92086,6.09535 2.66943,9.21949 0.46087,2.11196 1.11425,4.16176 1.66606,6.24468 0.34645,1.11786 0.73662,2.21541 0.98386,3.36581 0.17782,0.81931 0.40462,1.6109 0.8812,2.28147 0.46409,0.42693 0.99565,0.76787 1.5046,1.13153 0.49173,0.33561 0.97339,0.60195 1.54392,0.73409 0.70859,0.15151 1.40784,0.11245 2.11531,4e-5 0.83012,-0.14658 1.66806,-0.21892 2.50745,-0.25941 0.79503,-0.001 1.57749,-0.0258 2.36407,-0.15153 0.65007,-0.17271 1.24337,-0.51414 1.83015,-0.85562 -0.45912,0.24662 -0.89884,0.54184 -1.37737,0.73986 -0.0117,0.004 -1.6072,-0.25877 -1.67967,-0.27745 0,0 1.20283,-0.90939 1.20283,-0.90939 l 0,0 c 0.073,0.0164 1.81146,0.20924 1.72795,0.34527 -0.26661,0.43435 -0.68063,0.73627 -1.02097,1.1044 -0.59877,0.32431 -1.18747,0.68181 -1.855,0.80891 -0.78926,0.11817 -1.57756,0.1244 -2.37334,0.14035 -0.83674,0.0451 -1.67127,0.12503 -2.49887,0.27098 -0.71834,0.1064 -1.43478,0.11644 -2.14931,-0.0451 -0.57676,-0.15294 -1.07358,-0.43831 -1.57392,-0.78162 -0.51807,-0.3774 -1.07233,-0.71394 -1.52876,-1.17736 -0.48572,-0.69211 -0.72608,-1.50069 -0.90785,-2.34368 -0.2407,-1.15028 -0.6331,-2.24469 -0.97287,-3.36302 -0.54269,-2.08888 -1.19447,-4.14281 -1.64763,-6.25996 -0.74012,-3.12379 -1.58348,-6.20404 -2.66648,-9.21076 -0.71849,-2.41699 -1.35905,-4.8641 -2.24182,-7.21899 -0.67579,-1.90767 -1.14668,-3.8496 -1.04564,-5.91985 0.0609,-3.40143 0.15773,-6.81132 -0.0498,-10.20865 -0.14796,-1.24053 -0.28745,-3.57299 -0.99917,-4.60665 -0.18155,-0.26366 -0.32029,-0.2327 -0.57473,-0.26868 -0.53255,0.1354 -0.77047,0.23177 0.6196,-0.53984 0.12322,-0.0684 -0.22911,0.17353 -0.32129,0.28583 -0.47006,0.57275 -0.5825,1.35593 -0.69921,2.08143 -0.27863,3.57972 -0.0768,7.20607 1.30752,10.52084 0.70225,1.51511 1.40257,2.96856 2.36884,4.30801 0.17467,0.24215 0.64633,0.40117 0.55952,0.69431 -0.45967,1.55227 -1.43841,0.59821 -0.97873,1.02576 -0.50093,-0.89124 -1.26706,-1.6001 -1.81907,-2.45195 -0.71583,-0.95994 -1.12419,-1.61889 -0.93333,-2.879 0.20671,-1.63788 0.57764,-1.76738 2.10006,-2.61323 0.60565,-0.15503 1.23367,-0.0316 1.68811,0.45947 0.49985,0.84511 0.26457,1.72438 -0.0906,2.59733 -0.36207,0.98093 -0.66667,1.96027 -0.69288,3.03153 0.16151,1.51848 0.95624,2.57039 1.82034,3.73458 1.61536,2.23549 3.02836,4.60766 4.35694,7.05661 0.95278,1.4677 1.97842,3.18304 3.81662,3.12263 1.30136,-0.15902 2.49852,-0.69382 3.64165,-1.38358 3.13603,-1.85854 6.18344,-3.90692 9.44731,-5.49886 2.19398,-0.91879 4.44917,-1.80224 6.84227,-1.60696 0.86461,0.17566 0.64189,0.53729 0.70241,1.3365 0.0973,0.36984 0.47532,1.35928 0.45595,1.38497 -0.31694,0.42027 -0.75858,0.70755 -1.14779,1.04815 -0.0318,0.0278 0.0483,-0.0715 0.0724,-0.10705 0.26922,-1.09169 0.42201,-2.21176 0.61222,-3.32137 0.30269,-1.58702 0.5626,-3.18359 1.00996,-4.73494 0.58636,-2.80409 1.32532,-5.64082 1.02643,-8.54443 -0.45949,-3.33135 -1.31885,-6.57127 -2.53412,-9.67195 0,0 1.26964,-0.7772 1.26964,-0.7772 z"
       inkscape:connector-curvature="0" />
    <path
       style="fill:#000000"
       id="path3506"
       d="m 414.51113,704.42001 c 1.83097,4.61216 3.23832,9.40962 4.48956,14.24131 0.70585,3.27113 1.32226,6.59117 1.0897,9.96206 0,0 -4.14273,2.24879 -4.14273,2.24879 l 0,0 c 0.33197,-3.31932 -0.26042,-6.61313 -0.93894,-9.84326 -1.20788,-4.81109 -2.56104,-9.60806 -4.52505,-14.12523 0,0 4.02746,-2.48367 4.02746,-2.48367 z"
       inkscape:connector-curvature="0" />
    <path
       style="fill:#000000"
       id="path3508"
       d="m 419.29061,722.52328 c -0.62279,-4.78555 -0.9588,-9.6102 -1.19283,-14.43486 -0.1147,-4.15785 -0.31952,-8.3232 -0.19589,-12.48313 0.0336,-1.16128 0.12453,-2.32563 0.35973,-3.46106 0.0451,-0.21757 0.18508,-0.56761 0.20094,-0.81655 1.39515,-0.60187 2.7216,-1.44652 4.18543,-1.80564 0.23638,-0.058 -0.0352,0.52678 -0.0476,0.79052 -0.0158,0.34005 -0.0267,0.68039 -0.0367,1.02071 -0.038,1.2805 -0.0567,2.55531 -0.12438,3.83481 -0.58484,4.34863 -1.2668,8.67699 -1.77385,13.03835 -0.46363,3.6494 -0.79218,7.31663 -1.40309,10.94184 -0.44975,2.28897 -1.01262,2.23783 -4.70239,2.70574 -0.21866,0.0278 -0.58783,-3.79342 -0.61801,-4.1109 -0.22279,-2.80933 0.26704,-5.58281 1.09485,-8.23295 0.57177,-1.78467 0.38157,-1.54861 4.18507,-1.97097 0.36183,-0.0402 -0.22447,0.75415 -0.33513,1.13178 -0.46578,1.58936 -0.92295,3.17911 -1.35307,4.78041 -0.60469,2.33933 -1.01288,4.7297 -1.23586,7.14626 -0.37648,2.31085 -0.78879,1.6594 -4.55464,2.96226 -0.21852,0.0756 -0.52645,-1.7921 -0.54168,-1.88583 -0.17009,-1.41442 -0.18004,-2.84337 -0.18716,-4.26748 -0.0456,-1.30527 0.0945,-2.60581 0.36109,-3.87686 0.24064,-0.93591 0.90841,-1.59581 1.32516,-2.42454 0.3448,-1.30423 0.47818,-2.65688 0.78546,-3.97843 -0.0117,-0.43327 0.3024,-1.00797 0.15543,-1.45376 -0.0132,-0.0421 -0.0147,0.0898 -0.0348,0.12871 -0.0687,0.13173 -0.35639,0.4431 -0.23019,0.37935 1.15185,-0.58189 2.23851,-1.3062 3.35775,-1.9593 -2.00558,2.01467 -3.37123,4.60817 -4.67398,7.18496 -0.80401,1.58152 -1.33081,3.27173 -1.54131,5.06016 -0.12672,0.85163 0.0857,1.67977 0.23011,2.50985 0,0 -4.12155,2.39464 -4.12155,2.39464 l 0,0 c -0.14876,-0.87653 -0.39546,-1.75286 -0.28436,-2.65234 0.1837,-1.8561 0.68526,-3.61759 1.51427,-5.26053 1.29946,-2.60021 2.65036,-5.21272 4.57282,-7.33728 1.53384,-1.03818 3.02622,-2.15292 4.60152,-3.11453 0.3094,-0.18886 0.62382,0.003 0.75444,0.29671 0.21802,0.49094 -0.1147,1.14907 -0.10697,1.63786 -0.32156,1.34265 -0.52324,2.68669 -0.7251,4.05332 -0.33111,0.89164 -0.96066,1.50209 -1.37134,2.34537 -0.3345,1.21248 -0.43763,2.49667 -0.4167,3.75947 -6e-5,1.39948 -0.003,2.80355 0.14782,4.19559 0.0688,0.4677 0.0887,0.76465 0.23499,1.20176 0.043,0.12855 0.26549,0.28659 0.16524,0.36901 -6.24493,5.13301 -4.06238,3.83234 -3.58753,1.98611 0.26634,-2.44947 0.64504,-4.8811 1.2643,-7.25819 0.42088,-1.59642 0.87763,-3.17894 1.31481,-4.76999 0.10234,-0.37203 0.0174,-0.88317 0.30129,-1.11786 1.35032,-1.11616 2.89003,-1.9385 4.40301,-2.7707 0.12834,-0.0707 -0.10638,0.29108 -0.15954,0.43662 -0.93972,2.55376 -1.4143,5.2952 -1.23306,8.04965 0.10673,1.10856 0.1475,1.79539 0.34354,2.87337 0.062,0.3409 0.46057,0.76941 0.23181,1.01151 -1.11398,1.17887 -2.57055,1.89913 -3.86514,2.83345 -0.22458,0.16209 1.37536,-1.1137 0.36327,-0.78672 0.71668,-3.6177 1.03727,-7.30215 1.51811,-10.96211 0.48212,-4.33889 1.12093,-8.64698 1.71127,-12.9685 0.0887,-1.60948 0.0947,-3.21737 0.12775,-4.8291 0.006,-0.26537 -0.17859,-0.63805 0.0171,-0.79609 1.31148,-1.05918 2.83358,-1.76694 4.25037,-2.65042 -0.39679,1.36398 -0.75703,2.73644 -0.71222,4.20234 -0.16794,4.15508 0.009,8.31956 0.1219,12.47403 0.22447,4.79561 0.49962,9.60661 1.26821,14.34123 0,0 -4.10266,2.35887 -4.10266,2.35887 z"
       inkscape:connector-curvature="0" />
    <path
       style="fill:#000000"
       id="path3510"
       d="m 425.12468,718.7145 c -2.78488,-5.05208 -4.34056,-10.7193 -5.67949,-16.38599 -0.3273,-1.65823 -0.72079,-3.29799 -0.99338,-4.96848 -0.0237,-0.14481 -0.18937,-1.06559 -0.14222,-1.34556 0.0256,-0.15216 0.11481,-0.28283 0.17235,-0.42425 1.49847,-0.78469 2.8852,-1.90349 4.49544,-2.35409 0.34986,-0.098 0.50097,0.57261 0.70212,0.89962 0.57023,0.92706 1.27647,2.60644 1.68299,3.55627 0.82981,1.93874 0.95413,2.29302 1.716,4.22409 1.08467,2.49902 1.9378,5.09248 2.54511,7.77315 0.31879,2.34425 -1.27662,1.84764 -4.43713,3.00948 -0.25522,0.0938 -0.91739,-1.31362 -0.99941,-1.47967 -0.61822,-1.59446 -0.39749,-3.33243 -0.2987,-5.01048 0.0169,-0.28115 0.034,-0.56231 0.0506,-0.84349 0.0213,-0.35647 10e-4,-1.18914 0.075,-1.2233 4.43653,-2.05522 4.1884,-3.38713 4.21807,-0.96878 0.0117,2.01886 0.009,4.03774 0.0104,6.05661 0,0 -4.13367,2.29491 -4.13367,2.29491 l 0,0 c 0.006,-2.01379 0.0147,-4.02782 -0.0148,-6.04142 -0.0656,-2.54094 -0.22772,-0.77198 4.1385,-3.58238 0.0408,-0.0263 -0.0341,0.0973 -0.0422,0.14816 -0.021,0.13254 -0.0328,0.26663 -0.0451,0.40043 -0.047,0.50911 -0.0729,0.97823 -0.10592,1.49237 -0.10142,1.58104 -0.34615,3.23367 0.19425,4.74962 0.1973,0.40224 0.25295,0.57809 0.53781,0.91541 0.10246,0.12121 0.45625,0.22368 0.33929,0.32809 -1.15215,1.02832 -2.4792,1.7989 -3.72277,2.69179 -0.0522,0.0374 0.13142,-0.0598 0.14849,-0.12551 0.0341,-0.13079 -0.006,-0.27181 -0.009,-0.40773 -0.52655,-2.6798 -1.36844,-5.2567 -2.41815,-7.74797 -0.81009,-2.08422 -1.6166,-4.18391 -2.60871,-6.1761 -0.24046,-0.48284 -0.48428,-0.96735 -0.78189,-1.41077 -0.15246,-0.22715 -0.74956,-0.39682 -0.55805,-0.58563 1.06644,-1.05146 2.44403,-1.65246 3.66605,-2.47868 -0.11574,0.008 -0.26839,-0.0707 -0.34718,0.022 -0.12058,0.14163 0.0267,1.10259 0.0504,1.28224 0.22076,1.67809 0.609,3.31724 0.9014,4.98115 1.25006,5.61814 2.74239,11.26675 5.67155,16.15523 0,0 -3.97715,2.5796 -3.97715,2.5796 z"
       inkscape:connector-curvature="0" />
    <path
       style="fill:none;fill-rule:evenodd;stroke:#000000;stroke-width:1.52770674px;stroke-linecap:butt;stroke-linejoin:miter;stroke-opacity:1"
       d="m 423.43764,892.73893 7.39097,1.61109 96.82163,-314.97032 -16.26012,-3.2222 z"
       id="path4553"
       inkscape:connector-curvature="0" />
    <path
       style="fill:#5858fc;fill-opacity:1"
       d="m 425.83708,891.94715 c -1.21491,-0.86867 4.88935,-22.64766 8.62355,-30.76739 5.25346,-11.42325 9.61541,-27.23381 9.62572,-34.88996 0.005,-2.74998 9.66989,-38.6293 33.92189,-125.9125 18.65418,-67.13663 34.07841,-122.24286 34.27604,-122.45826 0.49264,-0.53692 13.85733,2.17341 13.80506,2.79963 -0.023,0.276 -21.56975,70.46389 -47.88161,155.97311 -45.69589,148.50415 -47.9214,155.48064 -49.66234,155.67996 -1.00245,0.11484 -2.22119,-0.0762 -2.70831,-0.42459 z"
       id="path4555"
       inkscape:connector-curvature="0" />
    <rect
       style="fill:#5858fc;fill-opacity:1"
       id="rect4573"
       width="78.884872"
       height="488.39578"
       x="608.71521"
       y="-432.52725"
       transform="matrix(0.95990328,0.28033141,0.23873587,-0.97108454,0,0)" />
    <path
       sodipodi:type="star"
       style="fill:#ffd5dd;fill-opacity:1"
       id="path4601"
       sodipodi:sides="5"
       sodipodi:cx="298.57141"
       sodipodi:cy="802.36212"
       sodipodi:r1="100.65094"
       sodipodi:r2="50.32547"
       sodipodi:arg1="-0.60374933"
       sodipodi:arg2="0.024569197"
       inkscape:flatsided="false"
       inkscape:rounded="0"
       inkscape:randomized="0"
       d="m 381.42855,745.21927 -32.54686,58.37918 29.64007,59.90738 -65.57944,-12.91374 -47.81602,46.70178 -7.98346,-66.36032 -59.19199,-31.04409 60.64539,-28.09919 11.23335,-65.88809 45.46437,48.99407 z"
       inkscape:transform-center-x="2.9786128"
       inkscape:transform-center-y="-0.26355722"
       transform="matrix(0.33536506,0,0,0.34492603,320.20273,621.73572)" />
  </g>
</svg>
